/* XPM */
static char *result[] = {
/* columns rows colors chars-per-pixel */
"64 64 184 2 ",
"   c #010101",
".  c gray4",
"X  c #242626",
"o  c #343434",
"O  c #393738",
"+  c #3C3B3B",
"@  c #6A3838",
"#  c #6C3837",
"$  c #7C3838",
"%  c #3E4848",
"&  c #3A4444",
"*  c #414747",
"=  c #4B4A4A",
"-  c #464748",
";  c #594040",
":  c #524A4B",
">  c #565454",
",  c #575D5D",
"<  c #694343",
"1  c #704242",
"2  c #6D6D6D",
"3  c #747373",
"4  c #7D7D7D",
"5  c #A91D1E",
"6  c #A61B1C",
"7  c #8D2C2B",
"8  c #932B2A",
"9  c #9A2C2C",
"0  c #9A3030",
"q  c #AB2626",
"w  c #AB2728",
"e  c #A02828",
"r  c #AB292A",
"t  c #A52627",
"y  c #B12728",
"u  c #B42929",
"i  c #BB2A2A",
"p  c #B02627",
"a  c #B9302F",
"s  c #A63939",
"d  c #BB3434",
"f  c #BC3A3A",
"g  c #B03736",
"h  c #CA2F2E",
"j  c #D42D2C",
"k  c #DB2C2C",
"l  c #DB2726",
"z  c #D3302F",
"x  c #C23535",
"c  c #CC3535",
"v  c #C43837",
"b  c #C63738",
"n  c #C23A3A",
"m  c #CC3938",
"M  c #D53333",
"N  c #DC3433",
"B  c #D23B3A",
"V  c #DB3E3E",
"C  c #E32D2D",
"Z  c #EA2F2E",
"A  c #E7302F",
"S  c #E62F30",
"D  c #E43434",
"F  c #E93333",
"G  c #E73937",
"H  c #E43B3A",
"J  c #E93D3C",
"K  c #E13738",
"L  c #CF403F",
"P  c #E4403F",
"I  c #EC3F40",
"U  c #964040",
"Y  c #955454",
"T  c #9B5657",
"R  c #9D5B5B",
"E  c #965B5B",
"W  c #A84D4D",
"Q  c #B04C4C",
"!  c #BA4443",
"~  c #AC5252",
"^  c #A95D5D",
"/  c #B95454",
"(  c #B45B5B",
")  c #945F60",
"_  c #936B6B",
"`  c #906464",
"'  c #8E7777",
"]  c #827F7F",
"[  c #8E7B7B",
"{  c #937575",
"}  c #927A7A",
"|  c #977677",
" . c #AB6261",
".. c #A76465",
"X. c #B67B7C",
"o. c #BB7B7C",
"O. c #A87879",
"+. c #C54444",
"@. c #CB4443",
"#. c #C54A4A",
"$. c #CA4949",
"%. c #D44342",
"&. c #D24949",
"*. c #DB4A4A",
"=. c #C45252",
"-. c #CF5758",
";. c #CA5E5E",
":. c #CA5757",
">. c #DB5454",
",. c #D75858",
"<. c #E54444",
"1. c #EA4343",
"2. c #E24C4C",
"3. c #EA4C4C",
"4. c #E24847",
"5. c #E2504F",
"6. c #E45353",
"7. c #EC5352",
"8. c #E75D5D",
"9. c #EB5C5C",
"0. c #EC5857",
"q. c #C46263",
"w. c #C36B6C",
"e. c #DE6060",
"r. c #DC6A69",
"t. c #D46B6C",
"y. c #C37675",
"u. c #DB7272",
"i. c #E46463",
"p. c #EB6262",
"a. c #E56E6E",
"s. c #EC6E6D",
"d. c #E17372",
"f. c #EC7474",
"g. c #EC7B7B",
"h. c #F17878",
"j. c #7C807F",
"k. c #74807F",
"l. c #81807F",
"z. c #7C7F80",
"x. c #817F80",
"c. c #7D8383",
"v. c #778988",
"b. c #808080",
"n. c #8D8484",
"m. c #8A8A8A",
"M. c #86898A",
"N. c #928181",
"B. c #978889",
"V. c #899292",
"C. c #939393",
"Z. c #969F9F",
"A. c #9B9B9B",
"S. c #AC8181",
"D. c #AC8B8B",
"F. c #B38686",
"G. c #BC8686",
"H. c #BB8B8A",
"J. c #AE9292",
"K. c #BB9393",
"L. c #B79696",
"P. c #9B9FA0",
"I. c #98A1A1",
"U. c #A4A3A3",
"Y. c #ABABAB",
"T. c #A6AEAE",
"R. c #BBAAAA",
"E. c #B8A6A6",
"W. c #A9B2B2",
"Q. c #B4B4B4",
"!. c #B9B7B7",
"~. c #B9B7B8",
"^. c #B9B9B9",
"/. c #B4BCBC",
"(. c #CA8383",
"). c #DC8685",
"_. c #CF9898",
"`. c #D29594",
"'. c #EF8888",
"]. c #EC8686",
"[. c #F18887",
"{. c #F39A9A",
"}. c #BAC2C2",
"|. c #C0C0C0",
/* pixels */
"b.b.b.b.b.b.b.] ] z.l.b.b.b.b.b.b.b.b.b.x.b.b.b.b.b.b.b.] c.] ] ] 4 b.b.b.b.b.b.b.b.b.b.b.b.b.b.b.b.b.b.b.b.b.b.b.b.b.b.c.b.b.l.",
"b.b.b.b.b.b.l.c.b.b.l.c.] ] l.b.b.z.b.b.b.b.b.b.x.b.b.b.] ] ] c.b.b.b.b.b.b.b.b.4 ] b.b.b.b.b.b.b.b.b.b.b.b.b.b.b.b.b.b.] ] ] c.",
"] c.b.b.b.b.b.b.b.b.l.j.c.c.c.4 x.x.x.x.b.b.b.b.b.b.b.b.] c.b.b.b.b.b.b.b.b.b.b.c.] ] ] b.b.b.b.] c.c.] b.b.b.b.b.b.b.b.b.b.] z.",
"] b.b.b.b.b.b.x.b.x.c.[ =.( | b.c.c.z.x.b.b.b.b.b.b.b.b.] c.l.b.b.b.b.b.b.b.b.b.] ] c.] b.b.b.b.] ] b.] b.b.b.4 b.b.b.b.b.b.b.b.",
"] c.b.b.b.b.b.b.x.x.x.:.Z F G *.q.O.x.c.4 c.c.x.b.b.b.b.b.b.b.x.b.b.b.b.c.l.c.] b.b.b.c.b.b.b.b.c.] b.b.b.b.] ] b.b.b.x.l.x.b.b.",
"] ] b.b.b.b.b.b.j.x.;.S G K D S D J 7.r.X.S.l.4 4 z.b.x.x.b.b.b.b.b.b.x.] ] z.] b.b.b.b.b.b.b.b.j.] b.b.b.b.c.l.b.b.b.b.b.b.b.b.",
"c.4 b.b.b.b.l.4 c.w.D D G G Z F D D C S 1.0.d.(.D.x.[ z.c.x.x.x.b.b.b.b.l.b.b.b.b.b.b.b.b.b.b.b.b.b.b.b.b.b.x.] b.b.j.b.b.b.b.b.",
"] ] b.b.b.b.b.c.o.J S G S m / %.G S F G N C S 1.0.)._.F.| ] c.] b.b.b.b.b.b.b.b.b.b.b.b.b.b.b.b.b.x.b.b.b.b.c.] b.b.b.b.b.b.b.b.",
"b.b.b.b.] c.z.F.3.C D D B f ` c.{ ^ #.K S F K C x ;.;.#.n ~ b.z.] b.b.b.b.b.b.b.b.b.b.b.] 4 b.b.b.b.] ] b.b.b.b.b.b.] c.] b.b.b.",
"b.b.b.b.] c.D.9.C G D D v f n ' v.v.c.{ / H F N f f d d f v ~ x.4 4 ] c.b.b.b.b.b.b.b.b.] c.b.b.b.b.z.c.b.b.b.b.b.b.] c.] 4 b.b.",
"b.x.j.b.4 M.d.D K D D N f f f ! ^ ' c.c.c.' >.H v f f f f f d ~ m.m.b.b.b.b.b.b.b.b.b.b.] ] b.b.b.l.] l.b.b.b.b.b.b.b.l.b.b.b.b.",
"b.b.l.] 4 M.e.C G D D N f f f f x ! ^ ' c.z.`.3.x f f f f f ! ) 3 o O 3 b.] b.b.b.b.b.b.c.l.b.b.b.b.] c.b.b.b.b.b.x.b.b.b.b.b.b.",
"b.b.b.b.4 m.i.C K D D K M B b v f f x f ..(.p.D b f f f n U = , O     O 4 j.b.b.c.] b.b.b.b.b.b.b.x.b.b.b.b.b.b.] ] b.b.b.b.b.b.",
"b.b.l.b.z.B.8.C D D D D D D D D D N M V 2.J C D c f f f n 1 & : X     . 2 M.j.l.b.l.z.] b.l.x.b.b.b.b.b.b.b.b.b.c.] c.b.b.b.b.b.",
"b.b.b.b.z.m.8.C D D D D D D D D D D D D S D K F M f f f n < - = X       > n.4 b.b.] ] ] b.b.b.b.b.b.b.b.b.b.b.4 ] ] b.b.b.b.b.b.",
"b.b.b.b.z.n.6.S D D D D D D D D D D D D K D K D N f f f f < * = + .     , M.4 b.x.c.l.c.b.b.b.b.b.b.b.b.b.b.b.] ] c.b.b.b.b.b.b.",
"x.b.b.b.4 N.6.D D D D D D D D D D D D D D D D D G v f f f 1 * - = + X O W [ c.] l.b.b.b.b.b.b.b.l.] z.b.b.b.b.b.b.b.b.l.b.b.b.b.",
"b.b.b.b.z.n.6.C N D D D D D D D D D D D D D D N D m f f f s - - - * : $ i / c.c.b.b.b.b.b.b.b.b.c.] b.b.b.b.b.b.b.b.b.z.b.b.b.b.",
"b.b.b.b.4 n.5.S D %.H D D D D D D D D D D D D D D M f f f f 7 @ ; @ 7 7 7 d ..c.] b.c.l.b.b.b.b.b.b.b.b.b.b.b.b.b.] l.] b.b.b.b.",
"b.b.l.b.4 n.4.D G B 6.D D D D D D D D D D D K D G N f f f n 0 8 8 8 7 7 7 9 n ] c.b.b.b.b.b.b.b.b.b.l.b.b.b.b.b.c.] c.] b.b.x.b.",
"b.b.b.b.j.[ 2.D G z >.<.S G D D D D D D D D D D D D c f f n g 7 7 7 7 7 8 9 q _ c.] b.b.b.b.b.b.b.x.] ] c.] b.b.b.b.b.b.b.] ] c.",
"b.b.b.b.c.} 4.C D D @.p.S D D D D D F N N D D D D D M f f f n 0 7 8 9 9 t u p _ c.] b.b.b.b.b.b.b.b.] c.c.] b.b.b.b.b.b.l.c.] ] ",
"b.b.] b.c.} 4.D K D c a.<.S D D D D D b b D D D D D D c b d a r e q q q q w q ` c.] b.b.b.b.b.b.b.b.b.b.] b.b.b.b.b.b.b.] ] ] c.",
"b.b.] ] c.} 4.C D D j -.f.k D D D D c ! I S D D D D G h u w q q q q q q q r 5 ` c.] b.b.b.b.b.b.b.b.b.b.] 4 b.b.b.b.b.b.4 c.] ] ",
"b.b.b.b.z.} <.C K D D v ].<.S K D N n >.D D D D D D D i t w q q q q q q q r q E c.b.b.b.b.b.b.b.b.b.b.b.c.l.c.b.b.b.b.b.b.] ] z.",
"b.x.l.b.z.} <.D D D G h r.h.k G D c r.1.N D D D D D F i q w q w r q r q q r 5 E c.b.b.b.b.b.b.b.b.x.b.b.] ] ] b.b.b.] ] l.c.b.b.",
"b.b.b.x.c.} P A D D D M #.[.D G z a.7.C D D D D D D F i t w q q q q r q q q q Y M.c.b.b.b.b.b.b.b.b.b.b.] z.b.b.b.b.b.c.b.b.b.b.",
"b.b.b.b.c.} H D G D D D n >.D k a.s.C G D D D D D D G u q r q q q q q q q q q Y c.b.b.b.b.b.b.b.b.b.b.l.b.b.b.b.b.b.b.b.x.l.b.b.",
"b.b.b.b.c.{ H G D D D D c M C p.'.S D D D D D D D D D u q q r q w q q q q r q Y c.b.b.b.b.b.b.b.b.c.] ] b.b.b.b.b.b.] ] b.b.b.b.",
"b.b.b.x.c.{ H D D D D D B M 3.{.V S D D D D D D D D D u q q q q q q w w q r 5 Y c.b.b.b.b.b.x.b.b.l.b.z.b.b.b.b.b.b.4 c.b.b.b.b.",
"b.b.b.x.c.{ H D D D D D B h 9.9.C G D D D D D D D D D u q q q q q w q q q r 5 Y c.b.] c.b.b.b.b.l.b.b.b.b.b.b.b.b.b.] ] ] c.b.b.",
"x.b.b.] c.{ H D D D D D f l p.p.C K D D D D D D D D D w t q q q q q q q q y 5 Y c.] ] l.b.b.b.b.b.b.b.b.b.b.b.b.b.b.c.] ] b.b.b.",
"] c.c.x.c.{ G D D D F M ! 6.4.].D D D D D D D D D D D u w q q q r q w q q q p Y v.b.b.b.b.b.l.b.b.b.b.b.b.b.b.b.b.b.b.b.b.b.b.b.",
"] ] ] ] c.{ K D D D D x ).9.l f.0.C D D D D D D D D N u q q w w q q q q w r 5 Y M.b.b.b.b.b.b.b.b.b.b.b.b.b.b.b.b.b.b.b.b.b.b.b.",
"j.b.x.l.c.{ K D K F z q.f.C S *.g.S G D D D D D D D N w q q q q q q w w q q 5 T c.b.b.b.b.b.b.b.b.b.b.b.b.b.c.] b.b.b.b.] c.b.c.",
"b.x.x.x.z.' G D D D n u.D D G j d.5.k D D D D D D D D w q q w q w q q q q p 5 T c.b.b.b.b.b.b.b.] b.b.b.4 ] ] ] b.b.b.b.] ] ] ] ",
"b.b.b.b.c.' K D D M -.<.S D D S &.s.C K D D D D D F N w q w q q r q q r q r p T c.b.b.b.b.b.b.b.c.] b.b.b.b.l.c.b.b.b.b.c.4 b.b.",
"b.b.b.l.z.[ H D D @.2.F D D D G j r.1.S D D D D D D N p q w q w q q q q q q 5 T c.] b.b.b.b.b.b.c.] b.b.b.b.b.b.b.b.b.b.] ] b.b.",
"b.b.b.l.c.[ H D N V D D D D D D S $.p.C D D D D D F N q q q w q q q q q q q p ^ M.j.b.b.b.j.l.l.] b.b.b.b.b.b.b.b.b.b.b.b.b.b.b.",
"b.b.b.b.z.[ V D D D D D D D D D G c e.H D D D D D F N q w q q q r q q q q q 5 T c.b.b.b.b.b.l.l.] j.x.b.b.b.b.x.b.b.b.b.b.b.b.b.",
"b.x.b.b.b.c.@.Z D D D D D D D D D N +.3.S K D D D D M q q q q w q q q r q r q ^ v.4 4 4 4 j.l.l.b.b.b.b.b.b.b.b.b.b.b.b.b.b.b.b.",
"b.b.z.b.] c.' V S D D D D D D D D D x >.G D D D D G N q q q q w q q q q q q 6 X./.Y.U.A.C.m.j.4 b.b.b.b.b.b.b.b.c.b.b.b.l.b.x.b.",
"b.c.] b.] ] c.N.&.Z G D D D D D D D N +.4.A K D D D N q q q q q q q q q q r 5 G.}.^.^.^.}.~.Y.C.4 4 b.b.b.b.b.b.] c.] b.b.b.b.b.",
"b.l.] b.l.c.] c.m.;.C D K D D D D D D c %.D D D D G j q q w w q r q q r q r 5 S.}.!.~.^.^.^.^.^.Y.m.4 b.b.b.b.b.] l.] z.b.b.b.b.",
"] ] ] ] j.b.b.x.z.V.o.N C D D D D D D N m G D D D G z t w q q q q q q q q r 5 S.}.~.^.^.~.^.^.^.|.^.P.b.4 ] 4 b.b.b.b.x.b.l.c.] ",
"j.c.x.c.b.b.b.b.b.4 V.J.&.C D G D D D D G D D D D F N q q q w p q q q q q r q L.}.~.~.^.^.^.^.Q.A.^.|.Y.M.4 b.b.b.b.b.b.b.b.z.] ",
"b.b.b.l.b.b.b.x.b.b.4 b.U.w.k D G D D D D D D D D D M q q w q w q q q r r q r R.^.~.^.^.~.^.^.Q.4 m.^.|.!.C.4 l.b.b.b.b.l.b.b.b.",
"b.b.b.b.b.b.b.b.b.b.b.] 4 Z.K.m C D D D D D D D D F M q q q q w r q q r 5 r H./.^.^.^.~.^.^.~.^.Y.4 m.!.^.^.A.4 ] c.b.b.b.b.b.b.",
"b.b.b.b.b.b.b.] ] ] b.b.b.4 V.Y.w.l D D D D D D D D z q q q w q q r q 5 Q E.}.Q.^.^.^.^.^.Q.^.^.^.Q.b.A.^.^.^.A.4 c.b.b.b.b.b.b.",
"x.b.b.b.b.b.b.c.] c.b.b.b.b.] M.T.L.@.C D D D D D G z q w w q w r 5 q o.|.}.Q.^.^.^.^.Q.^.^.^.^.~.^.~.Q.^.^.^.^.C.4 b.b.b.b.b.b.",
"b.b.b.b.b.b.b.b.] ] j.x.b.4 ] ] 4 A.Q.y.j Z G K D F M q w w r w 5 Q E.}.Q.~.^.^.^.^.^.^.^.^.^.^.^.^.~.^.^.^.^.^.^.m.4 b.b.b.b.b.",
"l.b.b.b.b.b.b.b.c.] b.b.b.] ] 4 ] 4 m.W.E.=.l Z K F M q r w 5 r l.^.^.~.~.^.^.^.Q.^.^.^.^.^.^.^.^.^.^.^.^.^.^.Q.^.Q.l.l.l.b.b.b.",
"b.b.b.b.b.b.b.b.b.b.] ] b.b.b.b.b.b.] 4 P.^.H.m C S M q q 5 ( R.|.!.!.!.^.^.^.^.^.^.^.^.^.^.^.^.^.^.^.^.^.Q.^.^.^.^.M.b.c.l.c.] ",
"c.b.b.b.b.b.b.b.b.b.z.c.b.b.b.b.b.b.b.b.4 M.W.!.y.V j 6 s K.}.^.|.|.!.|.^.^.^.^.^.^.^.^.^.~.^.^.^.^.!.^.^.^.^.^.^.U.4 b.l.l.x.] ",
"] c.] b.b.b.b.b.b.b.b.l.b.b.b.b.b.b.b.b.l.4 4 C.W.R.y.o.|.}.Q.!.^.^.!.!.~.~.^.^.^.^.^.^.^.^.~.^.^.!.^.^.^.^.^.^.!.M.4 b.x.b.c.] ",
"] x.] 4 b.b.b.b.b.l.b.b.b.b.b.b.b.b.b.b.b.b.b.4 4 M.P.T.Q.^.|.^.^.^.!.^.Q.^.^.^.^.^.^.Q.~.^.^.^.^.^.^.^.^.^.^.^.!.m.4 b.b.b.j.] ",
"b.b.b.b.b.b.b.b.b.b.b.b.l.] z.b.b.b.b.b.b.b.b.b.b.4 4 4 c.V.J.Q.^.|.^.^.~.~.~.~.^.^.^.~.^.^.^.~.^.^.!.^.^.Q.Y.^.!.M.4 b.b.b.b.b.",
"b.b.b.b.b.b.b.b.b.b.b.b.c.] b.b.b.b.b.b.b.b.b.b.b.4 ] b.c.4 c.b.m.J.Y.Q.^.|.^.~.^.^.^.^.^.~.^.^.^.^.^.^.A.4 4 m.b.] b.b.b.b.b.b.",
"b.b.b.b.b.b.b.b.b.b.b.b.b.b.b.b.b.b.b.b.b.b.b.b.b.b.b.b.] b.b.b.j.4 4 M.C.P.Q.^./.^.^.^.~.^.^.^.^.^.Y.m.4 b.b.] l.b.b.b.b.b.b.b.",
"b.b.b.b.b.b.b.4 x.b.b.b.b.b.l.b.b.b.b.b.b.b.b.b.b.b.b.b.b.b.b.b.l.l.l.j.4 4 l.M.A.U.Q.^.^.^.^.|.Y.C.4 b.b.b.b.b.b.b.b.b.l.b.b.b.",
"b.] ] c.] ] l.] b.b.b.b.b.b.x.b.] ] c.4 b.b.b.b.b.b.b.b.] j.b.b.b.b.b.b.l.l.l.4 4 4 b.m.A.U.Y.C.c.4 b.b.c.] ] b.b.b.b.z.b.b.b.b.",
"c.] ] ] c.b.c.] b.l.b.b.b.b.b.b.c.l.] ] b.b.b.b.b.b.b.b.] c.b.b.l.b.b.b.l.l.j.l.b.b.] 4 4 4 4 4 ] b.b.b.l.b.z.b.b.b.l.] b.b.c.b.",
"b.b.c.] b.b.x.b.b.b.b.b.c.l.b.b.b.b.b.x.b.b.b.b.b.b.b.b.b.x.l.l.b.b.b.b.b.b.b.b.b.b.b.b.l.b.b.b.b.b.b.b.b.b.b.b.b.b.c.] c.] ] ] ",
"b.b.4 ] b.b.b.b.b.b.z.] ] b.b.b.b.b.b.b.b.b.b.b.b.b.b.b.b.b.b.l.c.b.b.b.b.b.b.b.b.b.b.] ] c.b.b.b.b.b.b.b.b.b.x.b.b.l.] ] ] c.l."
};
