/* XPM */
static char *result[] = {
/* columns rows colors chars-per-pixel */
"64 64 230 2 ",
"   c #1A1617",
".  c #0C121F",
"X  c #291A18",
"o  c #0E1321",
"O  c #141A25",
"+  c #1A1E29",
"@  c #141925",
"#  c #1D222C",
"$  c #1E2630",
"%  c #22252D",
"&  c #26262A",
"*  c #252932",
"=  c #2A2D34",
"-  c #232832",
";  c #2E3137",
":  c #34353B",
">  c #3B3A3D",
",  c #333438",
"<  c #3A292A",
"1  c #4E3E3C",
"2  c #422C2A",
"3  c #6D5D3F",
"4  c #393C43",
"5  c #413F40",
"6  c #36434D",
"7  c #284152",
"8  c #295C78",
"9  c #355E74",
"0  c #3A6479",
"q  c #3A6477",
"w  c #424243",
"e  c #4C4A4A",
"r  c #454649",
"t  c #534B4A",
"y  c #56524F",
"u  c #474C54",
"i  c #585657",
"p  c #584E51",
"a  c #625D56",
"s  c #645D59",
"d  c #715143",
"f  c #6B655D",
"g  c #67605A",
"h  c #736956",
"j  c #4D5761",
"k  c #595C64",
"l  c #5B626A",
"z  c #476A77",
"x  c #586975",
"c  c #68666A",
"v  c #736B62",
"b  c #746B6C",
"n  c #7C746A",
"m  c #777168",
"M  c #676D77",
"N  c #7A6D74",
"B  c #687877",
"V  c #757475",
"C  c #76787B",
"Z  c #7D7D7E",
"A  c #7A7577",
"S  c #835843",
"D  c #876A56",
"F  c #A56E52",
"G  c #B66E59",
"H  c #8B6668",
"J  c #986A69",
"K  c #837A6D",
"L  c #87786C",
"P  c #836C71",
"I  c #877C78",
"U  c #997B71",
"Y  c #A56B66",
"T  c #BC7D7A",
"R  c #B0796F",
"E  c #CE6C5F",
"W  c #D36C5C",
"Q  c #DB6D5C",
"!  c #D66B55",
"~  c #DE725D",
"^  c #D87757",
"/  c #E36E5B",
"(  c #E96C57",
")  c #E2715E",
"_  c #E6765C",
"`  c #CC6D60",
"'  c #C7776D",
"]  c #DB7362",
"[  c #D57568",
"{  c #D3786C",
"}  c #E27260",
"|  c #7B8276",
" . c #82807F",
".. c #8C8473",
"X. c #9A8E7C",
"o. c #958A7A",
"O. c #9A937B",
"+. c #96906D",
"@. c #BB8279",
"#. c #A3967C",
"$. c #AE916E",
"%. c #B8A478",
"&. c #A9A16D",
"*. c #B59550",
"=. c #D38A5C",
"-. c #D58F5B",
";. c #E3895E",
":. c #E7985C",
">. c #F38F5B",
",. c #C5A359",
"<. c #F4B65D",
"1. c #F3AA5E",
"2. c #DC986C",
"3. c #DD9D70",
"4. c #CD8D70",
"5. c #E69A64",
"6. c #E69569",
"7. c #C7AC74",
"8. c #D9BA74",
"9. c #D1B16A",
"0. c #E9A664",
"q. c #F4AE64",
"w. c #F8A864",
"e. c #E4BC6C",
"r. c #FABD64",
"t. c #F6B564",
"y. c #ECB076",
"u. c #EBC46D",
"i. c #E7C36A",
"p. c #FBC364",
"a. c #FECD67",
"s. c #FDCE69",
"d. c #F8C368",
"f. c #FFD266",
"g. c #FFD369",
"h. c #FDD969",
"j. c #FDD474",
"k. c #DFC172",
"l. c #5B768B",
"z. c #697883",
"x. c #777B83",
"c. c #7C7D81",
"v. c #777D88",
"b. c #857D82",
"n. c #A47F8A",
"m. c #7E8081",
"M. c #7C828D",
"N. c #77808D",
"B. c #788695",
"V. c #5A89A7",
"C. c #7894AC",
"Z. c #6599BA",
"A. c #7898B0",
"S. c #6EA0BC",
"D. c #46849B",
"F. c #58A7CA",
"G. c #53ACD2",
"H. c #56B5DA",
"J. c #4DA4C5",
"K. c #68ACCC",
"L. c #66B5D6",
"P. c #72ADCC",
"I. c #57BCE3",
"U. c #639CC0",
"Y. c #59C2EA",
"T. c #53CAF4",
"R. c #55CBF6",
"E. c #4DCCF8",
"W. c #71CAF0",
"Q. c #808080",
"!. c #868589",
"~. c #858996",
"^. c #968B93",
"/. c #89909E",
"(. c #98928E",
"). c #B48483",
"_. c #AC9E8A",
"`. c #A69985",
"'. c #BB9598",
"]. c #A68D90",
"[. c #ADA28B",
"{. c #B2A28C",
"}. c #B8A781",
"|. c #B7AA94",
" X c #A8A198",
".X c #8696A9",
"XX c #9699A7",
"oX c #8E9FB0",
"OX c #B29CA6",
"+X c #9AA5B6",
"@X c #AAADBC",
"#X c #B2A6B1",
"$X c #C68A87",
"%X c #CF8E8A",
"&X c #CCBB9E",
"*X c #C7B699",
"=X c #EDB98C",
"-X c #C7BAA2",
";X c #D1BDA0",
":X c #FCD687",
">X c #F8CF8A",
",X c #D5C3A4",
"<X c #DDC9A9",
"1X c #DAC6A8",
"2X c #E1CCAB",
"3X c #EAC9A4",
"4X c #EDD3AD",
"5X c #EAD6B4",
"6X c #F2DBB5",
"7X c #F3DEB9",
"8X c #F8DDB5",
"9X c #FFD8AC",
"0X c #F5E1BA",
"qX c #FCE5BD",
"wX c #FEE9BE",
"eX c #FEE4A4",
"rX c #8CB7D8",
"tX c #A7B3C6",
"yX c #A8B3C7",
"uX c #A3AFC2",
"iX c #99D3F4",
"pX c #89CCEE",
"aX c #A3D4F3",
"sX c #A5C9EA",
"dX c #FFECC2",
"fX c #FEE8C6",
"gX c #FFF2C6",
"hX c #FFF4C9",
"jX c #FFFDCE",
"kX c #FFFDD0",
/* pixels */
"Q.Q.Q.c.m.Q.Q.Q.Q.Q.Q.c.Q.Q.Q.Q.Q.Q.Q.Q.Q.Q.Q.Q.Q. .c. .Q.b.m.Q.Q.Q.m.b.m.Q.Q.Q.Q.Q.Q.Q.Q.Q.Q. .m.| Q.Q.Q.Q.b.Q.Q.m.Q.Q.Q.Q.Q.Q.",
"Q.Q.Q. .m.b.Q.Q.Q.m.Q.Q.Q.Q.Q.Q.Q.Q.Q.Q.Q.Q.Q.Q.Q.Q.Q.Q.Q.Q.m.m.Q.Q.Q.Q.m.Q.Q.Q.Q.Q.m.Q.m.Q.m. .Q.Q.Q.Q.Q.| m.Q.Q.Q.Q.c.Q.Q.Q.Q.",
"Q.m.Q. .m.Q.b.Q.Q.Q.b.Q.Q.Q.Q.Q.Q.Q.Q.Q.Q.m.m.Q.b.m.Q.m.Q.Q.Q.Q.Q.Q. .| Q.Q.Q.Q.Q.Q.Q.Q.Q.Q. .Q.Q.Q.Q.Q.b.m.m.Q.Q.Q.Q.Q.Q.Q.Q.Q.",
"Q. .Q.m.Q.Q.| Q.Q.Q.| Q.b.Q.Q.Q.Q.Q.Q.Q.B x.Q.Q.|  .m. .Q.Q.Q.Q.Q.Q.m.b.b.Q.Q.m.Q.Q.C B Q.Q.m.Q.Q.Q.Q.Q.Q.Q.Q.Q.Q.Q.Q.Q.Q. .c. .",
" .c.Q.Q.Q.Q.Q.Q.Q.Q. .m.m.Q.m.Q.Q.Q.Q.Q.z z Q.Q.Q.Q.Q.Q.Q.Q. .|  . . . .| m.m.Q.Q.Q.z q Q.Q.Q.Q.Q.Q.Q.Q.Q.Q.Q.Q.Q.Q.Q.Q.Q.m. .m.",
"Q. .Q.| m.b.Q.Q.Q. .c. .m.Q. .Q.Q.Q.c.Q.v.0 z.Q.Q.Q.c.c.c.c.x.x.x.x.c.v.c.b.Q.Q.Q.z.0 N.Q.c.Q.Q.Q.Q.Q.Q.Q.Q.Q.Q.Q.Q.Q.m.m. .| b.",
"Q. .m.b.m.Q.m.Q.Q.Q.Q.m.Q. .m.Q.| C (...u 6 6 C v.c.Q.X.#.%.%.7.%.%.%.O.o.m.c.c.C 6 4 e !.(.C | Q.b.m.m.Q.m.m.Q.Q.b.Q.Q.m.b.Q.Q.",
"Q.m. .m.Q.Q.Q.Q. .Q.Q.Q.Q.c. .Q.!. X0X2X* * - e }.8.u.s.f.f.f.f.f.f.g.g.s.u.8.}.u % * = 2X8X|.Q.Q.Q.m.Q.m.I m.Q.Q.| Q.Q.m.Q.Q.Q.",
" .m.c. .c. .m.Q.m.Q.Q.Q.Q.Q.Q.Z m qX0XwX`.# = & *.h.a.a.a.s.a.a.f.a.a.a.a.a.h.*.& = # `.gX0XqXm Z  .Q.Q.m.Q.Q. .Q.m.Q.Q.Q.| Q.Q.",
"m.Q. .Q. .m. .Q.m. .Q.Q.Q.m.!.i # {.hX0XX.O.1X;X*Xa.a.a.a.a.a.s.f.a.a.a.a.a.a.*X&X<XX.X.0XhX{.# i !.Q.Q. .Q.Q.c.b.Q.m.Q.Q.b.Q.Q.",
"Q.Q. .m.Q.Q.Q.Q.b.Q.m.m.| Q.k * * w |.t @ v hXwXwX:Xa.a.a.a.a.a.f.a.a.a.g.a.:XgXwXhXm . e |.w % - k Q.Z m. .m. .m.Q.Q.Q.Q.Q.Q.b.",
"m. .Q.Q.Q.Q.Q.Q.| Q.b.Q.C  X|.& # h K O : O [.0X2X4Xj.a.g.a.a.a.s.a.a.s.a.j.5X<X0X[.O > + K f # * {. XC Q.Q. .m.m.Q.Q.Q.Q.m.m.m.",
"Q.Q.Q.Q.Q.Q.Q. .Q.Q.Q.c.!.5XdXa e qX0X6 # g [.r > : D h.s.s.a.a.a.a.s.s.g.D > : e {.g + w 0XqXe a gX5XQ.m.m.m. .Q.Q.Q.m.Q.Q.Q.Q.",
"b.| Q.Q.Q.Q. .c.Q.Q.Q.C -XqXdX-X;XwXwX[.O.wXhXm # # # ,.g.s.a.s.s.a.s.g.,.# % O m wXdXO.[.dXwX;X*XdXqX-XZ Q. .m.Q.Q.Q.Q.Q.Q.m.Q.",
"Q.Q.b.m.Q.Q.Q.Q.Q.Q.!.i v dXqXa o.hX7Xg &XwXwX7Xe y y h s.s.f.a.a.a.a.s.h y e e 6XwXwX&Xs 6XhXo.a dXdXf i !.Q.Q.Q.Q.Q.Q.b.Q.b.m.",
"Q.m.Q.m.Q.Q.Q.Q.Q.Z c = % *X`.@ > 2Xv o y wX2Xh n wXqX4Xj.a.s.a.a.g.a.j.6X0XdXK f 2XdXy o m 2X> @ `.*X% = c c.Q.Q.Q.Q.Q.m.Q.Q.| ",
"Q.Q.Q.Q.Q.m.Q.C Z |.r * $ i > = * g * ; % L > # = ;XgXdXwXh.a.a.s.a.h.wXdXgX,X= # > K * , * g * = > i % = w |.c.C Q.Q.Q.Q.Q.Q.b.",
"Q.Q.m.| Q.!. .(.,XhX`.@ > 5XK o i 0Xi   m ,X; = @ a &X`.[.8.f.a.a.g.8.[.`.&Xs @ = , ,Xv . y 0Xi . L 4X> O `.hX,X(.c.Q. .| Q.Q.Q.",
"Q.Z Q.b 4 r ; `.hX8XwXv *XhX2Xe ,XgX|.y 7XhXO.% I 4Xs @ - ; 9.g.g.9.= % @ s 5XK # O.hX0Xa |.hX1Xe 2XgX*Xv wX6XgX`.= r 6 b !.m.Q.",
"Q.Q.Q.!.r # % ; 2XhX*Xn qX8X0X[.wXwX2X|.dXqX,X{.dXqX3X; - + 3 g.f.3 # * ; <XwXgX_.1XwXwX{.2XqXqX[.0X0XqXn *XhX2X: % # r Q.c.Q.Q.",
"Q.Q.Q.Q.C r 5 > o.L = O _.jX..% 1XhXa > qX0Xe f wX0XdX+.d i 7 9.9.7 j 3 ..wX8XdXf e 0XqX> a hX1X& ..kX[.@ = ....> 4 r A !.m.Q.Q.",
"Q.Q.Q.Q.Z -X8X5X6X5 - - 5 X.* $ f O.% # I m # & |.9X2.5.w.$.0 B | 9 $.w.5.2.9X|.& # v ..# % O.f % - X.w * * 5 6X6X8X-Xc.| Q.Q.Q.",
"Q.Q.Q.Q.Z !.7XdXgX-X% ; _.L # % i s % % n r * # h :.1.d.a.q.c 0 0 c 1.a.d.1.5.D # * e m % % g i % # I `.= % &XhXwX7X!.| Q.Q.Q.Q.",
"Q.Q.|  . .Z (.*X;X|.K 2XdX7X5 , 5X<X# t gX[.O d 5.p.h.a.a.f.,.z z ,.a.a.f.f.d.5.d @ {.gXt # <X5X, 5 8XdX2XL |.&X*X(.c.Q.Q.Q.Q.Q.",
"Q.Q.Q.Q.Q.Q.c.: * # y wX8XhX[.&XwXwXo.&XwX7XD -.a.a.s.a.a.f.+.q 0 +.f.a.f.a.a.a.-.H 0XwX&XX.wXwX*X[.hX8XfXp % & > Z Q.Q.Q.Q.Q.Q.",
"Q.Q.Q.Q.b.| !.b $ - o K dX{.5 *XdXwXL 2XqX5Xy.d.f.a.a.a.f.e.q z x 0 e.f.a.a.a.f.d.0.6XwX2XL wXwX*Xw {.gXL o % # b !.Q.Q.Q.Q.Q.Q.",
"m.I Q. .b.Q.b.$.U m v `.f # # t wXo.o n hX=X<.g.s.a.a.a.h.| 8 $.$.9 | h.a.a.f.a.a.<.=XfXn o o.wXy # # f O.v m +.$.x.| Q.Q.Q.Q.Q.",
"m.m.Q.Q.Q.Q.v.7.t.fXwXgXO.# * * n * ; = 4.q.g.s.a.a.a.f.%.9 c q.0.x q %.f.a.a.a.a.a.0.7.; = & n = - # X.gXwXfXt.7.x.Q.Q.Q.Q.Q.Q.",
"m.Q.m. .m. .c.8.<.=XdXdXhXi w *X2X, # 1 -.g.a.a.a.a.a.d.B q $.a.a.$.q B s.a.a.a.a.a.f.-.1 # , <X*X4 a gXdXdX=X<.8.c.Q.Q.b.Q.Q.Q.",
"Q.Q.m.b.m.Q.Q.k.h.3.L ..K v 7XwXdXO.; =.s.g.a.a.a.a.f.&.8 m t.s.f.t.m 8 &.h.a.a.a.a.a.s.=., O.dXqX7Xf K ..L 3.h.u.Q.Q.Q.m.| m.b.",
"Q.Q.Q.Q. .m.m.u.h.p.S @ % # {.dXdX3X=.d.f.a.a.a.s.a.f.9.c ,.s.s.a.f.4.b ,.f.d.f.a.a.a.a.d.=.3XfXdX{.% % O S s.f.u.Q.Q.Q.Q.Q.m.Q.",
"Q.Q.m.Q.m.I Q.u.a.f.q.1 * # w 4X=X;.t.g.s.g.g.f.f.f.f.r.:.d.g.g.a.h.p.:.d.f.f.h.g.g.f.a.f.t.:.=X4Xw # * 1 0.f.a.u.Q.c.Q.Q.Q.Q.Q.",
"m.b.Q.Q.Q.Q.Q.u.f.a.s.=.F F G =.:.d.s.g.a.<.1.5.3.3.3.3.4.y.3.3.2.3.2.2.2.3.2.3.5.q.p.f.g.f.d.:.=.G F F =.d.f.f.i.| Q.Q.Q.m. .m.",
"m.Q.Q.Q.Q.Q.c.i.f.a.s.r.q.t.t.r.s.a.g.r.2.^.C.Z.P.sXsXrXrXrXV.l.V.Z.U.Z.Z.Z.Z.Z.A.C.).5.p.f.f.a.r.t.q.t.r.f.a.f.e.c.Q.Q.Q.Q.m. .",
"Q.Q.Q.Q.Q.Q.c.8.f.a.a.a.f.f.a.g.a.f.t.T U.F.F.G.pXaXiXW.iXL.0 q 9 D.H.H.H.H.H.G.F.F.G.A.4.r.a.a.f.f.f.s.f.a.a.f.8.c.Q.Q.m. . .m.",
"Q.Q.Q.Q.Q.Q.v.9.f.a.a.a.a.s.a.a.f.r.' U.F.F.I.W.aXsXpXW.iXR.G.J.J.H.R.T.E.E.T.E.T.G.U.G.C.;.a.a.s.s.a.a.a.a.a.f.7.v.Q.Q.b.Q.m. .",
"Q. .m. .Q.Q.c.#.f.a.a.a.a.a.a.a.g._ .XF.U.I.R.pXaXiXW.iXW.E.R.R.R.R.Y.T.Y.L.L.P.I.T.G.U.J.].>.g.a.a.f.f.f.a.a.f.%.v.Q.| | Q.Q.b.",
"Q.m. .c.Q.Q.c.O.s.a.g.g.h.f.a.h.1.T F.F.G.T.R.aXaXiXW.iXI.R.R.E.R.R.R.Y.P.Y.T.T.L.L.Y.K.F.S.] r.f.s.u.i.i.a.a.f.o.c.Q.b.Q.Q.m.m.",
"m. .Q.Q.Q.Q.Q.Q.u.h.&...+.&.u.a._ .XG.F.I.E.W.iXiXW.pXL.L.L.L.P.P.L.L.P.P.I.L.Y.T.L.I.I.F.G.].>.s.| z z q &.h.i.Q.b.Q.Q.Q.Q.Q.Q.",
"Q.Q.Q.Q.Q.Q.Q.x.9.i.q 8 q 8 +.w.R K.Z.S.P.oXOX].].).' n.T T T T @.@.@.).).).).).].].XXoX.XZ.A.] 8.q 9 q 8 ..h.7.x.Q.Q.Q.Q.m.Q.Q.",
"Q. .m.m.m.Q.Q.c.O.s.B z x z O.>.' ' { ] Q ! Q ! Q Q Q W W W W W ! Q W ! Q W Q Q Q ! Q Q ~ ] { ~ ;.(.O.+.+.i.g.O.c.Q.m. .m. .Q.Q.",
" .c.I Q.Q.Q.Q.Q.b.k.f.i.u.7.{ / _ / ) Q E E E E ` ` ` ` E E E E ` E ` ` ` ` ` ` ` ` ` ` E W ( ) Q _ w.s.h.f.e.c.Q.m. .m. .c.Q.Q.",
"Q. .m.m.Q.Q.Q.Q.x.#.f.h.r._ / ) ) ] ) ) ~ W E E ` ` ` ` E E E E E E E E E E ` ` ` ` ` W Q ~ / Q / ) Q ;.g.f.#.c.Q.Q.Q.Q.Q.Q.Q.Q.",
"Q.m.Q. .Q.Q.Q.Q.| Z e.h.;./ / ~ ) ~ ) ) } Q ` ` W E W W W W E E E E E W W E E ` ` ` W / ) ~ ) _ ~ Q / Q r.k.c.Q. .Q.Q.Q.Z m. .Q.",
"b.Q.Q.Q.Q.b.| Q.Q.c.O.d.) W ^ y.>X0.] / ) Q ~ / Q E W E W Q Q W } Q / / Q Q ] Q Q / } / / } :.=X=X;.! / 6.O.C Q.m.Q.Q.m.Q.Q.Q.Q.",
"m.Q.Q.Q.Q.m.Q.Q.Q.Q.m.@./ ! t.eXfX:X:.} / } ] Y P x.c c x.c N P b P P b N N b P P Y / } } ;.u.wXwXs.^ ! { b.Q.Q.Q.Q.Q.m.Q.Q.Q.Q.",
"| Q.Q.Q.Q.Q.Q.Q.| b. .R / ! r.j.>Xj.5.} } } J x j b.4 j v.= x z.= x.x = v.j 4 v.k x Y } Q ;.s.:X:Xa.;.! } o.c.Q.Q.Q.Q.b.m.Q.Q.Q.",
"Q.Q.Q.m.Q.m.m.b. . . .' Q ! 0.a.f.r.;./ / Q N u u v.# M N % v.l = v.u 4 ~.4 5 ~.4 l J / / ] q.g.a.t.^ ! } U m. .Q.Q.Q.Q.Q.b.| Q.",
"b.Q.Q.Q.m. .c.Q.Q.m. .[ ( Q ^ :.0.;.~ :.0.^ N u c M = x.k ; b.u 6 b.5 5 b.4 k z.4 B G 0.5.) ;.5.0.=.! / / R m.m.Q.Q.Q.m.Q.Q.Q.Q.",
"m.m.Q.Q.Q. . .Q.m. . .[ ~ } Q W ] ] ~ t.g.^ H x v.k 4 b.u 4 ~.4 u b.= k v.% c z.z J _ f.r.Q / / Q ! ) / } R m.m.Q.Q.Q.Q.Q.Q.Q.Q.",
"Q.Q.Q.Q. .m.m.m. .m.m.[ ( } / ] #X{ / W ^ Q Q H N k j v.6 j v.4 l.z.4 l.l.5 z.N Y Q ! ! ! Q ) $XOX} / / ( R m.Q.m.Q.Q.Q.Q.Q.Q.Q.",
"b.Q.Q.m.m.Q.Q.b.m.I m.).%X4.{ ' +X'.( } / / / ( E E Y H J H P H H H H H J Y ` Q / / / / / / / ^.yX4.{ ' R !.m.Q.Q.Q.Q.Q.Q.Q.Q.c.",
"m.m.Q.Q.c.Q.Q.Q.Q.Q.Q.M./.+X@XXXb.uX$X$X4.{ [ ] / ( / ( ( ( ( ( ( ( ( ( } ( / ( ) ] { 4.$X%XOXb.@X^.~.v.v.v.Q.Q.Q.Q.Q.| Q.Q.Q.Q.",
"m. .Q.Q.Q.Q.Q.Q.Q.Q.Q.M.x.x.~./.v.XXyXtXyX@X@X#XOXOX'.$X$X$X$X$X$X$X$X$X$X'.'.#X#X#XyXyX+X+XB.v.@Xv.v.v.c.c.Q.Q.b.Q.Q.b.Q.Q.Q.Q.",
" .m. .| Q.Q.Q.Q.Q.Q.Q.Q.b.b.I b.v./.XX.XXX+X@X@XuXyXyXyXyXtXtXyXyXyXuXyXyXyXuXuX+XXX/.b.v.v.v.M.XXb.b.M.Q.Q.Q.Q.m.m. .m.Q.Q. .c.",
"m. .m.b.Q.Q.Q.Q.b.Q.Q.Q.v.b.c s M B.n.J U b.I ^.^././.XXXXXXXXXXXX.X.Xn..Xb.b.b.b.b.b.b.U J I M.+XM N b.Q.Q.Q.Q.Q.Q.m. .m.Q.Q. .",
"Q.Q.Q.| Q.Q.b.m.m.m.Q.b.| !.c j w /.i X t I p 2 w I b.c.Z b.c.c.b.v.c.Z c.Z Q.t 2 f b.P 2 X i ~.B.z.A Q.Q.Q.Q.m.Q.Q.Q.m.Q.m.Q.Q.",
"b.Q.Q.b.Q.m.m.Q.Q.Q.Q.Q.c.!.c l.* c :   5 c.j , g !.c.Q.m.Q.Q.Q.b.b.Q.Q.Q.b.Q.c , x v.V &   6 i l.z.A Q.Q.Q.Q.m.Q.m.Q.| b.m.Q.Q.",
"m.m.Q.Q.Q.Q.Q.Q.Q.Q.Q.Q.| !.g B.6   & X r !.I !.!.Q.Q.Q.| Q.Q.Q.v.c.b.m.Q.Q. .Q.!.Q.Q.C X & X & A.z.C Q.Q.m.Q.b.Q.Q.Q.b.Q.Q.Q.Q.",
"Q.Q.m.Q.Q.Q.Q.| Q.m.Q.Q.b.Q.B x B       s !.c. . .m.Q.Q.Q.Q.Q.Q.b.b.c.b.Q.Q.Q. .| Q. .Q.,     j C.l b.Q.Q.Q.Q.Q.Q.Q.Q.Q.Q.Q.m.Q.",
"m.Q.Q.Q.Q.Q.Q.b.Q.Q.Q.Q.m.b.Q.M l r w i Q.Q.m.b.m. .m.I Q.m.I m.Q.Q.Q.Q.m.m.Q.Q.Q.c.Q.Q.C e 1 l c Z Q.Q.Q.Q.Q.| Q.Q.b.m.b.Q.Q.Q.",
"Q.Q.Q.Q.Q.m.Q.Q.Q.Q.Q.Q.m.Q. .Q.Q.Q.!.!.Q.Q.| Q. .m.m.m.m. .m.m.Q.Q.Q.Q.Q. .m. .Q.Q.Q.b.m.!.m. .| Q.Q.Q.Q.Q.b.m.Q.| m.Q.| Q.b.Q.",
"Q.Q.Q.Q.Q.Q.Q.m.Q.Q.Q.Q.Q.m. .Q.m.b.m.b.Q.Q.Q.Q.Q.Q.m.Q.Q.Q.Q.Q.Q.Q.Q.m.Q.Q.b.| Q.Q.Q.Q.| Q. .m.m.Q.Q.Q.Q.Q.Q.Q.b.m.Q.Q.Q.Q.m.m.",
"Q.| b.m.Q.Q.Q.m.b.Q.Q.| Q. .Q.Q.Q.Q.m.Q.Q.Q.Q.Q.Q.m.Q.Q.Q.Q.Q.Q. .c.m.m.b.Q.Q.Q.Q.Q.Q.Q.Q.Q.Q.Q.Q.m.Q.Q.Q.Q.m.Q.Q.Q.Q.Q.Q.Q.Q.m."
};
