/* XPM */
static char *_4f02dc659a94a6bad8c58566571dbeaVyzbIi1hUXBI1dpc[] = {
/* columns rows colors chars-per-pixel */
"64 64 256 2 ",
"   c #0A0805",
".  c #170A02",
"X  c #1A1307",
"o  c #1B1917",
"O  c #0E1218",
"+  c #261905",
"@  c #241C19",
"#  c #291208",
"$  c #1D2117",
"%  c #2B2408",
"&  c #352806",
"*  c #292519",
"=  c #352A19",
"-  c #3C3515",
";  c #191B24",
":  c #1C2528",
">  c #282626",
",  c #332B26",
"<  c #373327",
"1  c #383837",
"2  c #2C2F32",
"3  c #2B1E25",
"4  c #432901",
"5  c #463515",
"6  c #4D350C",
"7  c #443928",
"8  c #463C36",
"9  c #583A26",
"0  c #6D3D25",
"q  c #584814",
"w  c #664B07",
"e  c #705414",
"r  c #474428",
"t  c #4A4339",
"y  c #564B39",
"u  c #575437",
"i  c #564C2C",
"p  c #745923",
"a  c #685737",
"s  c #734B2D",
"d  c #7A642A",
"f  c #7B6436",
"g  c #6B602C",
"h  c #383D47",
"j  c #1F3743",
"k  c #413F40",
"l  c #364A53",
"z  c #3A5F72",
"x  c #484647",
"c  c #554A47",
"v  c #585647",
"b  c #464954",
"n  c #575757",
"m  c #4E5550",
"M  c #7B4943",
"N  c #635B47",
"B  c #675A59",
"V  c #6F5551",
"C  c #596253",
"Z  c #67664B",
"A  c #696657",
"S  c #7B765A",
"D  c #746C53",
"F  c #555E62",
"G  c #4B5660",
"H  c #59656A",
"J  c #576772",
"K  c #6A6867",
"L  c #756B69",
"P  c #797668",
"I  c #716F74",
"U  c #6B7677",
"Y  c #7C7B75",
"T  c #7C7D7C",
"R  c #757778",
"E  c #6B6F72",
"W  c #625F6A",
"Q  c #3E483D",
"!  c #844B34",
"~  c #866729",
"^  c #846C37",
"/  c #8E7534",
"(  c #A87A3C",
")  c #8C6912",
"_  c #997947",
"`  c #88785A",
"'  c #917452",
"]  c #A97753",
"[  c #867A67",
"{  c #957A63",
"}  c #837C74",
"|  c #837D7C",
" . c #887A77",
".. c #957975",
"X. c #AE7C6E",
"o. c #865F5B",
"O. c #CE7855",
"+. c #C97B64",
"@. c #7C8275",
"#. c #7D827C",
"$. c #78837B",
"%. c #7D8368",
"&. c #B9953B",
"*. c #AE8C33",
"=. c #A78E27",
"-. c #C39D37",
";. c #C38E30",
":. c #D2A830",
">. c #E8B82C",
",. c #E9B935",
"<. c #F3BC34",
"1. c #F5BD3A",
"2. c #E6B02E",
"3. c #D7A719",
"4. c #F3C23C",
"5. c #928655",
"6. c #A9945A",
"7. c #AF8D4E",
"8. c #BAA451",
"9. c #888468",
"0. c #848274",
"q. c #81817D",
"w. c #898778",
"e. c #968978",
"r. c #99926E",
"t. c #A89768",
"y. c #B59A69",
"u. c #A69B7A",
"i. c #AD8B72",
"p. c #BBA567",
"a. c #B6A676",
"s. c #B2AD77",
"d. c #C79757",
"f. c #CF9455",
"g. c #C7A245",
"h. c #D2A74A",
"j. c #D0AF55",
"k. c #E7BA45",
"l. c #F0B849",
"z. c #CC9369",
"x. c #D8A868",
"c. c #C9B576",
"v. c #D7B979",
"b. c #CFAB6C",
"n. c #ECB769",
"m. c #E7BB7A",
"M. c #EFB56F",
"N. c #E0955B",
"B. c #ECC24A",
"V. c #F7C54B",
"C. c #ECC458",
"Z. c #FDCC5C",
"A. c #F6C959",
"S. c #FBD35B",
"D. c #DBC57C",
"F. c #EAC868",
"G. c #FCCB63",
"H. c #FECC6B",
"J. c #F5CA68",
"K. c #FDD264",
"L. c #FED36B",
"P. c #FBD868",
"I. c #E7C678",
"U. c #FDCC73",
"Y. c #FDCC7B",
"T. c #F8C878",
"R. c #FCD473",
"E. c #FDD47C",
"W. c #F7D778",
"Q. c #EDD375",
"!. c #FCE073",
"~. c #7D7E82",
"^. c #7A7D86",
"/. c #6F7A81",
"(. c #5A7890",
"). c #827E82",
"_. c #837C8B",
"`. c #8A7C85",
"'. c #907588",
"]. c #AF7E81",
"[. c #4C879A",
"{. c #7E8182",
"}. c #7D8289",
"|. c #798585",
" X c #788F93",
".X c #5694AE",
"XX c #759CAC",
"oX c #6EA5BA",
"OX c #56A3B5",
"+X c #58AFD3",
"@X c #68A9C5",
"#X c #66B8D5",
"$X c #75B8CF",
"%X c #66BEE4",
"&X c #73C2D9",
"*X c #6DC6E9",
"=X c #5CC3E3",
"-X c #818182",
";X c #83838A",
":X c #8A8786",
">X c #958883",
",X c #9A9687",
"<X c #8E9297",
"1X c #A49B89",
"2X c #A59992",
"3X c #AE968D",
"4X c #AAA688",
"5X c #B8A68A",
"6X c #AAA496",
"7X c #B9A996",
"8X c #B9B596",
"9X c #939BA5",
"0X c #93A4AF",
"qX c #AFAEAA",
"wX c #A0A29F",
"eX c #CAAB88",
"rX c #D8B786",
"tX c #C5B899",
"yX c #CEB692",
"uX c #E8BA89",
"iX c #C5BBA7",
"pX c #CBBEB1",
"aX c #C7998A",
"sX c #D8C48C",
"dX c #E7C689",
"fX c #F7CB85",
"gX c #ECD586",
"hX c #F8D688",
"jX c #F4CC96",
"kX c #FBD795",
"lX c #E8CB95",
"zX c #FDE295",
"xX c #FEE18A",
"cX c #D7C9B7",
"vX c #D9D4BC",
"bX c #CBC5AC",
"nX c #E8D6A3",
"mX c #FADDB9",
"MX c #F1D4AE",
"NX c #FCE5BD",
"BX c #F8E8B2",
"VX c #86B2C9",
"CX c #92D2EF",
"ZX c #A5CCE3",
"AX c #DCD4C5",
"SX c #C0CDD6",
"DX c #E9DCC7",
"FX c #E6DED3",
"GX c #E9E3C8",
"HX c #F9E7C9",
"JX c #ECE6D4",
"KX c #FBEBD3",
"LX c #F5EAD9",
"PX c #FBF4D8",
"IX c #F8F1CB",
"UX c #FEF6E2",
/* pixels */
"-X-X~.-X-X| q.| #.| ).q.-X-X~.).| -X-X|.).~._._.-Xq.).).`.)._.^._.;X`.| ).).#.q._._._.).{.#.q.| -X).{.{.| #.q.q.q.q.-Xq.~.-X).{.",
"~.-X-Xq.#.| q.q.q.q.#.| ~.-X~.-XY Y :X$._.).;X^.| #.q.q.`.-X).{.^.^.| q.`.-Xq.#.~.;X_.-X$.{.T Y -X).).-X).q.q.| #.| q.| q.{.).{.",
").-X~.q.#.-X| #.#.).-X-X-X~.-X{.-X#.$.$.|.|.T #.#.#.q.0.Y -X#.$.|.q.q.} q.#.$.@.#.#.}.}.@.@.#.:X-X~.{.{.~.q.).#.q.-Xq.-X#.).{.-X",
"{.-XT -X| q.{.q.| #.#.).-X-X-X~.T #.$.{.U R $.|.|.#.0.q.-X#.#.$.$.$.#.#.@.q.q.{.|.$././.$.$.#.{.-X{.{.).-X).#.| T q.T q.).q.-X~.",
").).).-X#.).#.).#.{.~.{.~.{.^.;X^.).{.$.F H |.}.#.|  .q.:X;X~.#.#.).;X`.:X| | ).~.|.J G T #._._.~.;X{.-X{.{.-X{.).-X-Xq.{.q.).q.",
").#.#.{.~.-X).{.-X{.-X-X{.-X{.)._._.| -X/.J U ).`.w. . . . .[ P [ P } }  . . .| ^.E F /.#.q.).^.~.~.~.).-X~.#.{.#.-XT ~.q.~.).).",
").~.q.| q.-X-X-X~.-X{.~.q.{.{.).| | :X{.b h l ~.[ { { i.i.a.a.c.p.a.y.t.r.X.{ [ T b h b q.w.|  .-X{.#.#.{.{.-X-X~.-Xq.-X).#.| {.",
"| -X-X{.-XT {.~.{.{.).#.{.{.#.q.e.6XLXAX> > > x eXeXuXjXgXgXQ.W.W.W.gXgXjXuXeXeXx 2 2 > AXLX6X:Xq.-X-X{.~.-X~.{.{.{.{.{.| {.).q.",
"q.q.).#.-X~.~.-X-X~.#.{.#.T q.} S HXDXPX6XX < % 6.kXT.Y.Q.U.H.L.R.H.U.Q.Y.I.kX6.& < X 2XPXDXHXS Y q.#.T {.{.~.{.).{.).{.-X-X| #.",
"| ).#.).{.-X{.{.{.-X-XY -X:X-Xv + 4XUXDX>X,XvXsXrXfXE.L.L.G.G.Z.G.G.Z.L.H.hXfXv.tXvX,X:XGXUX4X+ v :X-X-X#.-X-X).~.{.{.{.T -X| -X",
"q.-Xq.{.{.~.~.-X#.{.| :XY P L * * x 6Xc o K JXIXNXkXQ.J.J.K.K.Z.Z.P.K.A.J.Q.kXHXIXLXE o c 7Xt * * A L q.:XY #.#.-X~.-X-Xq.{.q.q.",
"| q.{.| {.-X{.-X-X-XY -XY qX6X* * A | o 1 o 6XGXnXnXgXR.R.A.Z.Z.Z.Z.Z.R.T.gXnXnXGX6Xo 1 o q.A $ , 6X6Xq.q.Y -X{.{.{.{.~.~.{.| -X",
"#.-X-XT {.~.-X~.q.#.q.Y 0.AXUXn i GXJXQ @ K 1X8 < 5 ' hXJ.P.Z.S.S.Z.K.F.hX' 5 7 i 6XK o 8 JXGXi N LXAXq.Y -X-X-X~.{.~.-Xq.q.q.q.",
"-XT -X-X{.).{.{.T | | 0.pXJXLXiXbXIXJX6X1XLXPX[ @ = + y.hXJ.K.Z.Z.K.S.hXp.+ = @ S LXLX,X6XGXIXbXiXLXJXpX} q.q.Y -X{.-X{.-X~.-XT ",
"-X#.#.-X{.{.-X{.-X:X>Xv K LXJXN e.PXFXN tXHXHXGXt y a f T.R.H.H.H.H.R.fX^ y y t mXHXIXtXV GXUXe.N JXLXK v >Xq.-X{.~.-X~.-X#.q.q.",
").| {.{.{.-X~.#.} | K * * pX1X+ 7 cXI X a HXcXD [ PXJXMXlXY.U.H.H.U.T.fXMXJXPX[ A cXHXa X P cX< + 1XiX* = K Y q.q.-X-X~.{.{.-X~.",
";XT -X{.#.#.| }  .2Xx , * v 8 , = A > 1 * %.1 @ = iXPXHXNXhXR.K.P.H.kXNXIXKXiX, o 1 [ % 2 2 A = > 8 v * , x 6X} Y T T -X-X~.~.-X",
").).{.#.#.:X| ,XcXPX2XX r vX0.X v GXc o L bX1 < X Z iX1X3XyXE.A.A.E.eX6X1XiXD # 2 1 bXP o c FXN X q.vX7 + 1XPXbX,X| ;X|.T {.-X~.",
").T |.U 1 x , 1XPXDXJXL 8XPXvXy bXUXiXc DXPX>X* { MXV o * % v.W.E.b.- $ @ N MX{ = >XPXDXv 8XUXbXy vXKXtXD LXGXPX2X< b 1 R {.|.$.",
"-X-X}.|.l * * = vXKXpX[ HXDXDX1XKXDXpXtXHXHXcX3XKXHXcX= < % g gXdXd % = = cXHXKX2XcXHXHX7XcXDXKX6XDXGXHX9.qXIXvX, * > x |.|.#.q.",
"} `.~.;X} t 8 8 %.w.> @ 2XUX>X* pXUXA 1 IXGXm A LXHXmXX.g u < 8X8X- u g X.mXHXLXK m GXHX1 A PXpX* :XUX2Xo , w.w.7 8 t T ;X~.-X} ",
"`.).).;X} pXDXvXGX1 2 3 8 ,X$ > D e.> : ` S o > 7XMXx.N.c.t.v $.$.m t.v.N.x.MXaX> o S 9.: : >XD > > ,X7 > , r vXAXFXpXY ;X). .'.",
"| ).}.^.R >XDXPXIXbX# 5 5X..3 3 V N > > ` r < @ V b.M.M.L.D.S m m S D.U.M.M.z.D @ < r S 2 > v V 3 3 [ 5X= * bXIXPXFX:XR }.^.). .",
"| -X|.}.-X@.,XqXbX4X[ vXKXvXt 1 AXAXo m PX4X# a b.fXY.H.L.I.4XF H 1XI.L.H.Y.fXb.a + 4XIXc o AXAX1 8 DXHXvX[ 4XbX7X2XY ~. X|.).`.",
"0.@.#.|.T | | 8 3 , c LXNXIX4XbXHXKXe.pXHXBX' z.fXU.H.H.P.Q.w.F F w.Q.P.Q.J.U.fXz./ mXHXpXe.HXHXbX4XPXvXLXc @ = 8  .q.#.$.$.@.0.",
"q.@.@.#.T ).:XL 3 @ #  .PXu.< 8XKXKX{ pXKXzXx.Y.U.H.H.U.P.D.Z J H Z D.!.K.H.H.U.uXx.MXIXcX{ KXKX8Xr s.IXY # 3 , L `.-X#.$.$.0.w.",
"0.0.#.q.~.`.'.2X..` A ,XZ * , c DXe.X [ NXx.n.Y.L.G.K.F.gX5.m :X<Xu %.Q.J.G.K.H.U.M.b.NX[ # e.JXx > $ Z ,XA [ ..2X_.).T q.q.| | ",
"| #.q.:X~.| [ tXsXHXKXLX>X@ , 3 [ = , = z.M.H.H.G.L.J.W.s.u Z iXtXZ u s.gXG.P.G.H.U.n.b.& , * [ > , $ ,XUXLXIXyXaX .| ).-X-Xq.).",
"|.{.{.#.#.q.[ yXrXdXHXHXPXZ 7 iXcX< * 9 d.H.U.H.Z.K.Q.D.S m 6.fXfX6.m D D.W.K.S.H.H.U.d.9 * , cXtX7 N UXLXHXuXrXsX` 0.#.#.{.{.}.",
"~.{.{.Y $.w.` dXfXj._ ` %.A HXHXPXe.5 y.Y.J.L.Z.K.J.W.8.u S m.U.U.v.S y j.W.J.K.Z.L.H.Y.y.5 r.PXHXHXA [ { ' j.fXsX` w.#.#.#.}.}.",
").).-X).q.0.{ uXY.Y.f X > * 3XKXmXjXz.T.U.H.A.L.H.J.J.h.~ b.T.E.R.Y.z.^ h.H.F.P.L.Z.L.U.M.d.jXNXKX3X* > # f Y.U.dX` 0.q.).`.~.^.",
").| -X).~.} 5.dXY.T.v.i % * 9 MXuXf.M.U.E.U.E.E.fXhXhXI.x.uXjXfXfXkXuXb.T.hXgXgXfXE.U.Y.U.M.N.uXMX9 % * i rXT.R.dX5.} | | -X| #.",
"-X-X#.#.@.0.{ uXY.Y.fX7.( ( ( f.N.n.H.R.Y.uXrXeX5X5X8XiX5X7X7X7X5X5X7X3X5X5X5X5XeXrXjXfXH.U.U.N.d.] _ _ 7.fXG.U.dX{ w.| q.).-X).",
").-X$.$.@.0.[ uXfXH.U.J.M.n.n.M.E.Y.E.I.y.i.>X`.9XSXSX0XqXqX^.J |.|. XXXXX X X X<X>Xi.aXfXU.n.U.M.M.n.n.M.Y.G.U.rX5.q.-Xq.| -X| ",
"'.'.|.#.$.%.[ yXY.G.G.H.U.U.Y.U.H.hXeXr.<XXXoX@XZXZXCXVXCX$Xz (.z [.$X%X+X=XoXoXOXoXXX Xa.uXR.G.H.H.Z.G.U.H.P.Q.yX9.$.|._.~.-X0.",
"'.`.-X$.#.@. .eXQ.S.K.G.G.H.E.U.U.fXu. XoX+X#X%XCXCXCXCXCX$X@XOXOX@X*X=X*X*X=X*X=X+X+XoX:Xa.T.Z.Z.Z.Z.G.W.Q.P.!.5X%.$.-X_.).q.@.",
"_.;X).#.#.#.).5XgXS.S.J.J.K.J.R.T.z.;X@X+X+X*XCXCXCXCXCX*X$XCX$X%X%X*X=X=X+X+X#X#X=X+XOX9Xe.x.hXH.H.!.Q.Q.P.C.Q.a.} ).;X_.).#.@.",
"_.-Xq.| #.{._.e.I.!.Q.gXhXW.W.T.M.X.9X@X+X*X*XCXZXCXVXoX.X(.(.[.(.[.[.(..X@X$X*X#X&X&XOXXX<Xi.uXhXI.D.D.D.Q.P.!.i. .).-X).).$.@.",
"{.#.q.0.@.q._.[ D.Q.t.9.r.u.m.jXX.9XoX@X#X*XVXZXVX0X9XU F (.G G z l l l j j (.VXVXoX$XoXOX9X].z.lX5.C C m s.gXD.`  .`.| `.`.Y #.",
"{.T | q.$.-X`.P D.D.Z m m y 7.uX].9X^.9X0XXXVX9X2XL B A B c B V n F c x 3 , /.<X<X9X<X.Xz l '.X.yXN m C Q 9.nXs.`  .q.| | -XT |.",
"^.;X`.| :X~.)...y.lXS Z Z Z +.z.+.+.+.3XX.>XqX].o.M M M M M M ! M M M 8 , 8 [ ] ] ] o.h h 1 L ].5Xi.r.6.6.sXnX6.} #.w.#.| :X/.}.",
";X).`.| {._.).} ' eXnXsXbXc.+.O.O.+.O.+.aXaX].o.M ! ! ! 0 ! s ! ! 0 9 3 , i ] z.N.] 0 5 % i M { X._ 6.sXgXQ.sX' 9.0.#.#.q.).^. X",
"T @.q.q.~.{.;XY [ y.kXfXM.+.O.O.O.+.N.z.aXaXo.M s s s s ! ! s 0 0 0 6 # 5 ^ h.h.h.( 9 5 q u g 5.7.5.7.b.F.I.b.6.5.9.%.$.)._._._.",
"|.q.| q.).{.#.@.9.' rXY.f.;.O.z.N.z.uXfXuXyXi.i.7.7.*.7.] ( ( ( / _ ^ ~ / j.k.,.l.-.7.5.5.6.6.8.b.v.D.D.P.Q.x.n.c.s.4Xw.@.)._._.",
").`.q.#.#.%.%.r.u.a.v.jXd.j.z.m.fXkXzXxXzXzXhXkXhXW.H.C.Z.K.A.G.A.J.I.F.C.A.V.S.K.J.P.Q.W.P.C.F.U.E.W.W.P.L.H.hXhXlXnX4Xw.@.-X`.",
"`.-Xw.9.u.r.p.s.dXBXhXkXkXhXhXhXlXdXD.n.J.W.Q.J.F.F.J.P.A.V.Z.Z.S.Z.P.A.P.S.S.S.P.P.P.P.P.P.V.B.P.!.xXhX!.!.E.hXhXzXnXs.w.@.|  .",
"Y [ r.p.gXkXzXW.R.P.P.J.I.I.rXeXeX6.( =.-.k.k.j.8.6.d.v.Q.R.R.J.R.W.W.F.P.!.P.S.P.P.P.S.S.S.V.V.A.P.!.xXQ.c.c.c.I.zXhXD.r.@.q.w.",
"9.a.hXW.R.C.K.A.V.B.,.l.*.~ 6.s s p ) &.k.C.*.& & & X & b.hXk.h.l.F.C.J.S.A.V.S.V.V.V.V.V.V.4.4.V.A.W.Q.5.% . # ^ D.xXkXs.[ 0.| ",
"7.d.Q.P.A.l.V.V.V.4.:./ ) 6.c.t.f ~ -.A.F.*.r i A L N + q 8.C.V.V.V.V.<.V.4.4.4.4.<.>.4.<.4.4.<.V.l.Q.=.- v C u X 5.F.Q.F.6.9.@.",
"n.F.J.C.B.A.A.V.V.V.k.h.j.x.D.D.v.m.A.J.8.D P 9X2 m :Xa & / B.4.1.<.<.>.1.<.<.>.>.4.>.>.<.>.>.,.<.l.=.q u C C :Xc 4 =.B.8.8.[ q.",
"3.-.-.8.7.-.g.-.-.:.3.3.:.,.k.A.S.K.S.K.&.i D <XR x R 0.5 / k.<.<.<.<.>.4.<.4.4.>.4.4.4.>.>.>.>.,.V.d r A P :Xb >X& =.k.j.t.9.q.",
"=.) 6 & 4 4 & 4 4 w =.3.3.>.<.>.4.>.B.J.7.a P 9XwX~.L w.Z / -.>.>.>.>.>.>.>.>.,.>.>.:.>.2.2.2.2.2.:.d u 0.<X<XB '.5 *.h.y.{ } {.",
"=.w X . . . . . . w ( 3.3.3.<.>.>.3.4.:._ D ).qXwXqXK w.u d -.>.>.2.2.3.2.,.,.,.>.B.B.B.B.B.V.V.B.k.f , K qXwXK w.- =.j.t.[ :X}.",
"=.=.e 6 5 6 6 4 4 ) -.:.2.:.2.2.>.>.4.g./ N ~.wXqXwXC 6Xa f g.k.,.k.k.k.B.B.C.C.V.C.C.C.C.F.J.F.F.b.a < F ;XwXI qXu S 6.9.} ~.|.",
"6.*./ d ~ ^ ^ ~ ) *.&.*.=.*.;.;.-.&.-._ s 8 I ^.wX:X@.,Xu f 7.&.g.-.-.-.g.-.&.g.&.7.&.&.7.&.*.*.*.d r < n I I :XwX%.` S 0.:XT |.",
"5.d g q q e p p w e ) / ( / ~ ~ / p p 6 # t /.E qX:X$.C t S _ ^ w w w w w w p ~ ~ ~ ~ ~ d p s p u & X X 8 W B Y E Y 0.0.q.Y {.T ",
"0.D r X   . + # X # y L L L C u 1 y = . # O h ^.9XT K 1 n B D 5 X .   . . + 5 = + y N y % # 8 N v *     o 1 L C x K | | #.q.-XT ",
"{.$.K t X   O X o 1 n b b n h 1 O j *   @ ; ; ; 2 2 > 2 1 1 7 < > * @ > @ @ > > O o * >     o o : : $ > : > 1 1 m H I R Y #.-X| ",
"I K K n G m m b x x x k b x 2 l : O $   , K K I L K E I I I L Y R I I R R R R I T T {.K ; : o > <XE R |.T {.#.~.~._.).| q.#.-X-X",
";X).~.~.).|.}.~.;XT ~.~.#.#.U E /.O O $ n :X/.T -X:X~.;X^._.Y #.|.T |.-X{.-X;X|.}.R {.;X1 ; O m  XJ U :X#.{.{.|._.).T T q.T ).`.",
").~.^.;X^.|.~.|.~.q.:Xq.@.-X-XK H l t C #.#.-X{.R #.#.{.~.-X#.#.-X).-X{.~.-X~.~.:X~.).:XI x 8 F K R }.|.#.T T }.`.q.q.q.#.-X-X;X",
":X~.{.}.{.|.{.~.-XY q.| q.Y -X;X-X;Xw.@.w.Y q.Y w.#.q.{.-XT q.-X{.~.-X-X).-X).).R :X).R :X:X:X~.|.;X-X-X{.#.}.}.| `.q.q.#.#.T ).",
"@.Y -X#.Y T q.-X-X:X-XT :X{.}.~.`.T -XT T -X~.;X|.T Y -X-X).~.~.-X{.-Xq.-X-XT T -X:XT -X).{.T ).-XT | -Xq.@.#.$.| | ).-X{.{.-X`.",
"q.0.#.q.q.q.q.T | | -XT {.~.;X}._._.`.-X-X-X_.^.~.:X#.q.T ).^.;X).#.-X#.q.-X~.-X-XT -X-X-X~.;X~.T :X . .-X#.$.q.q.q.).-X|.|.~.-X"
};
