/* XPM */
static char *result[] = {
/* columns rows colors chars-per-pixel */
"64 64 231 2 ",
"   c #010103",
".  c #02030C",
"X  c #0B0B0B",
"o  c #0A0A09",
"O  c #090C16",
"+  c #0D1015",
"@  c #131313",
"#  c #1C1C1C",
"$  c #17171A",
"%  c #1C170E",
"&  c #201704",
"*  c #362907",
"=  c #322B19",
"-  c #1B1D26",
";  c #151720",
":  c #1E2128",
">  c #232323",
",  c #2C2C2B",
"<  c #23252A",
"1  c #2A2C32",
"2  c #2E323B",
"3  c #343433",
"4  c #3C3C3C",
"5  c #363638",
"6  c #363328",
"7  c #433209",
"8  c #47360A",
"9  c #45340D",
"0  c #453F2B",
"q  c #443D30",
"w  c #59491E",
"e  c #6D520D",
"r  c #76590B",
"t  c #6D561A",
"y  c #755B15",
"u  c #7E6116",
"i  c #4D4326",
"p  c #46433D",
"a  c #564B2F",
"s  c #695522",
"d  c #6B5D35",
"f  c #796630",
"g  c #373B46",
"h  c #283040",
"j  c #563D44",
"k  c #3F434C",
"l  c #444444",
"z  c #4B4B4B",
"x  c #46484B",
"c  c #53524D",
"v  c #484A52",
"b  c #545453",
"n  c #5B5B5B",
"m  c #51555A",
"M  c #675C47",
"N  c #6E514B",
"B  c #6B6554",
"V  c #4E596C",
"C  c #5E6066",
"Z  c #646464",
"A  c #6B6B6B",
"S  c #666769",
"D  c #72716C",
"F  c #6A6B75",
"G  c #6E7075",
"H  c #737373",
"J  c #797977",
"K  c #77797D",
"L  c #7E7E7E",
"P  c #73757C",
"I  c #7D6971",
"U  c #8A670D",
"Y  c #946E0C",
"T  c #876816",
"R  c #967218",
"E  c #9A740E",
"W  c #A87C0D",
"Q  c #9A7B27",
"!  c #867138",
"~  c #887745",
"^  c #8A7C4C",
"/  c #817F7C",
"(  c #7F807F",
")  c #B7880E",
"_  c #AE8414",
"`  c #9E812F",
"'  c #AE8822",
"]  c #AE8928",
"[  c #B9932B",
"{  c #BA9735",
"}  c #B18820",
"|  c #CB9A18",
" . c #D39F17",
".. c #D59E0D",
"X. c #DAA20E",
"o. c #DBA513",
"O. c #DCA71B",
"+. c #DDA91B",
"@. c #D5A217",
"#. c #E3AD1A",
"$. c #E3AA14",
"%. c #EBB21C",
"&. c #C59B2A",
"*. c #D8A723",
"=. c #CCA33A",
"-. c #D3AA3C",
";. c #D7AB33",
":. c #D7AD33",
">. c #E3AE22",
",. c #E0AE28",
"<. c #E5B125",
"1. c #ECB623",
"2. c #EAB62C",
"3. c #EDB92E",
"4. c #EBB628",
"5. c #F4BC2A",
"6. c #F2BA24",
"7. c #EEBA31",
"8. c #E4B536",
"9. c #F1BD34",
"0. c #F0BE39",
"q. c #F9C12C",
"w. c #F4C137",
"e. c #FBC535",
"r. c #F6C239",
"t. c #FAC63B",
"y. c #FECB3C",
"u. c #FFCA35",
"i. c #FFD03F",
"p. c #9E8948",
"a. c #AC9145",
"s. c #B2984A",
"d. c #AB9658",
"f. c #B59D59",
"g. c #A28A4A",
"h. c #81807F",
"j. c #8C897D",
"k. c #99937D",
"l. c #998D6A",
"z. c #A89A69",
"x. c #AA9C74",
"c. c #B6A267",
"v. c #CB9D4B",
"b. c #C8A646",
"n. c #DAB751",
"m. c #D7B247",
"M. c #E3BB4A",
"N. c #E0B745",
"B. c #E3BE56",
"V. c #D6BC6E",
"C. c #C8B477",
"Z. c #D5BC72",
"A. c #EDC245",
"S. c #F5C543",
"D. c #FCCB43",
"F. c #FDCC4A",
"G. c #F5C847",
"H. c #FFD144",
"J. c #FFD44D",
"K. c #FFD84D",
"L. c #E9C256",
"P. c #FCCE52",
"I. c #F9CF5D",
"U. c #F4CB54",
"Y. c #FFD254",
"T. c #FED25C",
"R. c #FFD959",
"E. c #DBC378",
"W. c #D9C06F",
"Q. c #E9C766",
"!. c #FDD464",
"~. c #FFDA63",
"^. c #FDD66C",
"/. c #FFDA6C",
"(. c #ECCD72",
"). c #FCD773",
"_. c #FEDA74",
"`. c #FDDB7D",
"'. c #F5D579",
"]. c #F1D06C",
"[. c #FFE36B",
"{. c #FFE57A",
"}. c #7C7E82",
"|. c #777982",
" X c #6F7A94",
".X c #7F8081",
"XX c #7E8089",
"oX c #73809A",
"OX c #808080",
"+X c #8A8A87",
"@X c #8B8B8B",
"#X c #868687",
"$X c #92918C",
"%X c #949183",
"&X c #8E9197",
"*X c #949595",
"=X c #9B9B9A",
"-X c #959699",
";X c #8C8F97",
":X c #A09F9E",
">X c #AEA68D",
",X c #A5A296",
"<X c #BAB091",
"1X c #9B9DA2",
"2X c #9FA0A4",
"3X c #A5A5A4",
"4X c #ABABAB",
"5X c #A9A8A7",
"6X c #B3B3B3",
"7X c #BABAB9",
"8X c #ACAFB4",
"9X c #C6B787",
"0X c #CBBD91",
"qX c #C1BCA8",
"wX c #FDDD83",
"eX c #FDDE8C",
"rX c #F5D887",
"tX c #F6DD95",
"yX c #EDD797",
"uX c #FFE28C",
"iX c #FFE789",
"pX c #FEE293",
"aX c #FFEB9B",
"sX c #FFE896",
"dX c #ECDCAA",
"fX c #FEEAA4",
"gX c #FEEAA8",
"hX c #FDEBB1",
"jX c #D8CA9C",
"kX c #AAB3C7",
"lX c gray77",
/* pixels */
"OXOXOXOXh.OXOXOXOXOX}.OXOXOXOXOXOXOXOXOXOXOXOXOX/ OXOX.XOXOXOXOXOXOX}.OXOXOXOXOXOXOX}.OXOXOXOXOXOXOXOXOXOXOX/ OXOXOXOXOXOXOX/ }.",
"OXOX}.OXOXOXOXOXOXOXOXOXh.OXOXOX/ OX.XOXOXOXOXOXOXOXOXOXOXOX}.h.OXOXOXOXOXOXh.OXOXOXh.h.OX/ OXOXOXh.OXOXOXOX.XOXOX}.OXOXOXOXOXOX",
"OXh.h.h.OXOXOXOXOXOXOXOXOXOXOXOXOXOXOXOX}.OXOXOXh.}.OXOX.XOXOXOXOX/ OXOXOXOXOXOXOXOXh.OXOXOXOXOX.X/ OXOXOXOXOXh.OXOXOXOXOXOXOXOX",
"OXOXOXOX}.OXOXOX/ .XOXOX}./ OXOXOXOXOXOXh.OXOXOXOXOXOXOXOXOXOXOXOXOXOXOXOXOXOXOXOXOXOXOXOXOX}.OXOXOXOXOXOXOXOXOXOXOXh.OXOXOXOXOX",
"OXOXOXOXOX}..XOXOXOXh.}.OXOXOXOXOXOX}.OXOXOXh.OXOXOX.XOXOXOXOX/ .X/ OXOXOX.XOXOXOXOXOXOXOXOXOX}.OX}.OXOXOXOXOXOXOXOX.XOXOXh.OXOX",
"OXOXh.OXh.h./ OXOXOXh.OXOXOXOXOXOXOXOXh.OXOXOXOXOXOXOXOXOXOXOXOXOXOXOXOXOX/ }.OXOXOXOXOXOXh.OXOXOXOXOXOXOXOXOXOXOXOXOXOXOXOXOXOX",
"}.OXOXOXOXOXOXOX/ OXOXOXOXOXOXOXOXOXOX/ OXOXOX}.OXOX/ OXOXOXOXOXOXOXOXOXh.OXOXOX}.OXOXOXOXOXOXOXOXOXOXOX/ OXOXOXOXOXOX/ OXOXOXOX",
"h.h.OXOXOXOXOXOXOXOXOXOXOXh.OXOXOX.XOXOXOXOXOXOXOXOXOXOX}.h.OXOX}.OXOXOXOXOXOXOXOXOX/ OXOXOXOXOXOXOXh.OX.XOXOX}.OX}.OXOXOXh.h.}.",
"h.OXOXOXOXOXOXOXOXOXOXOXOXOXOXOX/ }.OXOXOXOXOXOXOXOXOXOX}.OXOXOXOXOXOXOXOX}.OXOXOXOXOXOXOX/ OXOXOXh.OXOXOXOXOXOXh.OXOX.XOXOXOXOX",
"OXOXOX}.OXOXOXOXOX}.OXh.OXOX/ OXOXOXOXOXOXOXOX.XOX/ OXOXOX/ OXOXOXOXOXh.OXOXOXOXh.OXOXOXOXOX.XOXOXOXOXOXOXOXOXOXOXOXOXOXOXOXOX}.",
"OXOXOXOXOX/ h.OXOXOXOXOXOXOX.XOXOXOXOXOXOXOXOXOXOXOXOXOXOXOXOXOXOXOXOXOXOXOXOX/ OX.XOXOXOXOXOXOXOXOXOX}.OX/ h.OXOXOXOX/ OXOXh.OX",
"OXOXOXOXOX.XOXOXOXOXOXOXOXOXOX}.OXOXOXOXOXOX/ OX.XOXOXOXOXOXOXOXOXOXOXOXOXOXOXOXOX/ OXOXOXOXOXh.OXOXOXOXOX.XOXh.OXOXOXOXOXOXOXOX",
"OXOXOX/ OX}.OXOXOXOXOXOXOXh.OXOXOXOXOXh.h.}.OXOXOXOXOXOXOXOXOXOXOX/ OXOXOXOXOXOXOXOXOXOXOXOXOXOXOXOX/ .XOXOXOX}.OXOXOXOXOX/ OXOX",
"OXOXOX.XOXOXOXOXh.OXOXOXOXOXOXOXOXOXOXOXh.OXOXOXOXOX}.OXOXOXOXOXOX.XOXOXOXOXOXOXOXOXOXOX/ OXOX}.OXOXOXOXOXOXh.OXOXOXOXOXOXOX}.OX",
"OXOXOXOX/ .XOXOXOXOXOX}./ OXOXOXOXOXOXOXOXOXOXOXOXOXh.OXOXOX}.OX}./ L / L L OXOX}.OXh.OXOXOXOXOXOXOXOXOXOXOXOXOXOX/ h.OXOXOXOXOX",
"OX}.OXOXOXOXOXOXOXOXOXOX.XOXOXOX}.OXOXOX/ OXOXOXh.OXOXOXOXOX#XOX#X#X#X#X#X#XOXOXOXOXOXOX.XOXOXOXOXOX}.OXOXOXOXOXOX}.OXOXOXOXOXOX",
"OXOX}.OXOXOXOXOXOXOXOXOXOXOXOXOXOXOXOXOXOXOXOXOXOXOXh.L +XOXJ D C n b b n S L .XOXOXOXOXOXOXOXOXOXOXOXOXOXOX}.OXOXOXOXOXOXOXOXOX",
"OXh./ OXOXOXOXOXOXOXh.OXOXOX/ OXOXOXOXh.OXOX/ OXOXL #X-X@XJ Z n b c 4 3 > # 5 L OXOXOXOX( h.OXOXh.OXOXOXOXOX/ OXOXOXOXOX}./ OXOX",
"OXOXOXOXOXOXOXOXh.OXOXOXOX}.h.OX}.OXOXOXOXOX.XOXh.L 4X3X-X*Xn b @X:X=X*X-Xz > D #XL .XOX#XOXOXOXOX.XOXOXOXOXOXOXOXOXOXOXOXOXOXOX",
"OXOXOXOXOXh.OXOX}.OXOXOXOXOXh.OXOXOXOXOXOXOXOXOXJ 3X4X*X-X*XJ h.-X-X=X=X@X3 5 J OX( OXL x p J h.OX/ OXOXOXOXOXOXOXOXOXOXOXOXOXOX",
"OXh.OXOXOXOX}.h.OXOXOXOX( OXOX.XOXOXOXOXOXOXOXK =X6X=X-X-X=X:X1X=X=X=X@X4 # b @X}.h.#Xb 3 < A #XL L L OXOXOXOXOXOXOXOXOXOXOX/ }.",
"OX}.OXOXOXOXOXh..X/ OX.XOXOXOXh.h.OXOXOXOX.XK @X7X=X=X=X=X-X-X=X=X*X,XS < , z h.k.+X@X, , 3 n @X#X@X#X/ OXOXOXOXOXOXOXOXOXOXOXOX",
"OXOXOXOXOXOXOXOXOXOX.XOXOXOX.X.Xh.OXOXOX}.j.x.7X5X-X=X=X=X=X=X=X:X=X2Xz > 5 c -.y.Q.Z # > 3 z *XOXJ =X}.K OXOXOXOXOXOX/ OXOXOXOX",
"OXOXOX.XOX/ OXOX.XOXh.OXOXOX( ( OXOXOXOX|.c.0X8X&X1X-X&X&X-X&X;X#XP S 5 > x s.u.7.D.6 . + < 1 C G J =X>X%Xj.j.OXK }.OXOXOXOXOXOX",
"OXOX/ OXOXOXOXOXOXOXOXOX.XOXOX.XOXJ K K +XC.qX>XC.C.c.g.d.c.l.^ d i 4 = , 3 [ O.*.{ p.~ p.a.s.b.n.L.L.T.T.I.].(.9X#XL OXOXOXOXOX",
"OXOXOXOXOXOXOXOXOXOXOXOXL K L L #X$X,XqXdXhXfXfXaXuX{./.R.J.J.J.J.G.0.8.=.;.A.7.D.D.F.K.K.K.K.R.J.Y.Y.T.T.T.!.~.{.0XL OX.XOXOXOX",
"OXOXOX}.OXOXOXOXOX|.K h.k.>XqXjXdXgXfXaXsXtXeXeXeXeXwX).P.D.t.t.t.D.D.H.D.D.0.w.Y.Y.T.I.T.T.I.!.!.^.^.^.^.)._.'._.yX=XL OX.X.XOX",
"OXOXOXOXOXOXOX|.}.k.C.yXfXfXfXsXeXwX'.)._./.~.I.T.P.F.F.F.D.D.D.F.F.Y.P.U.T.P.T.^.^.)._.`.uXN.n.pXwXeX`.^.^._.'.`.fX7XK OXh.OXOX",
"OXOXOXOXOXOX|.%XE.uXfXsXeX_.^.^.!.R.Y.F.A.8.8.9.9.e.K.!.[.!.Y.T.!.^./.`.'.wXuXuXpXpXuXpXuXwX!./.`.eXuXwX{.{.{.wXuXaX5XK OXh.( OX",
"OXOXOXOXOXL >X`.uXeX_.!.!.Y.F.D.S.=.~ M n g d e.w.n.a # d '.`.wXrXpXyXyXtXuXwX).^.!.T.P.D.D.t.y.D.'.pXuXE.f f.iXeXsX9XK #Xh.OXOX",
"h.OXOXOXL *X{._.^.Q.U.D.t.r.y.=.c  XV I N N ;.u.m., $ $   i iXrXv.(.E.Q.I.F.D.y.t.t.t.u.r.r.r.r.r.I.aXZ.% .   ~ sX`.rX$XL OXOXOX",
"OXOXOXOXK >X~.P.F.V.S.t.0.u.m.h  XkXoX|.j =.y.D.s < b b 4   a.R.S.D.y.y.r.t.t.r.r.r.w.9.9.9.7.7.w.D._.0 1 n ,   Z.iX~.V.}.h.h.}.",
"OXOXOX/ }.Z.R.F.H.y.y.t.r.H.p.b j.>Xl.~ { w.y.-.3 H +X=Xn - 8 u.r.r.r.r.9.9.r.9.9.w.9.9.9.9.9.9.7.y.{ : h.$XJ + f K.5.b.OXOXOXOX",
"OXOXOXOX0XI.G.S.S.S.S.D.D.t.8.8.4.3.r.H.H.U.R.! G @Xl H +XC % 8.t.9.9.9.9.9.9.9.9.9.7.9.7.7.3.7.7.y.t k L +X5X5 7 5.4.=..XOXOXOX",
"OXOXOXh.;.O.@.+.#.#.#.<.1.<.4.3.r.H.Y.T.T.~.T.B x H H x 6XJ $ [ e.7.9.9.3.9.9.9.7.3.7.2.3.3.2.7.7.2.6 L Z OXK S = <.6.b.}.h.OXOX",
"OXOXh.h.} W W E U U U Y Y _ ) @.4.2.r.G.Y.~.A.D 1XL 3X@Xb D 1 Q e.9.7.7.2.3.3.9.7.2.7.7.3.3.3.2.w.*., S *X=XS *X= *.6.f.}.h.OXOX",
"OXOX}.+X] U &             y | } 4.2.7.7.w.y.-.v S =X6X@Xx *X2 R e.3.9.9.3.9.9.5.3.4.4.<.<.>.>.+.%.} , b $X8XA K p | 6.z.|.OXOXOX",
"OXOX/ h.&.E * . o o X X . T | } 4.4.3.3.4.w.[ x c *XlX2XL $X2 T q.2.#.+. . ... . .@.@.*.*.:.8.M.F.' : J :X4XH -Xp  .5.l.}..XOXOX",
"h.}./ #X&.W 7             Y @.&.>.+.+.*.*.q.Q C :X3X6X4Xn #X4 T 5.>.8.M.N.M.B.L.Q.Q.(.'.rXrXrXpX[.] : > .X7Xn ;Xa O.v.XXOXOXOXOX",
"OXOXOXOX=...E 7 7 7 8 * 8 *.>.*.@.*.2.t.S.H.` k p H lX( OX7X: R 5.0.T.~.!.!.^.^.!.T.T.T.Y.Y.P.F.i.] + m =X6XJ 2Xd a..X.XOXOX.XOX",
"OXOXh..Xm.%.1.%.1.#.#.#.4.6.#...#.4.1.1.1.q.E 1 D L OXJ l 3X+ _ 6.4.6.%.%.%.#.$.$.$.X.o...o.X. .#.T o c A H L 4XZ OX.Xh.OX.XOXOX",
"OXOXh.}.l.g.y e u Q Q T T r T T T T T T e e * + 4XS H Z 5XZ X y U r r r y y e e y s s t s s w * * % X , *XZ 5XK S #XL .XOXOXOXOX",
"OXh.OXL }.K $     : v - .   S K G F P S . + X X l 6X=X@X6X, A F v       $ ; . l #X|.}.}.}.}.|.m x O X @ A 6X6Xl ( h.OXh.h.OXOXh.",
"OXOXOXOXh.OXS o     X X   l *X#X#X+X+X#XH h.l o @ z 3X+X, b #XOXOX3   o o o , Z n b b z z x x c b $   X $ x 1 b h.( OXOXOXOXh.}.",
"OXOXOXOXOXOX@Xb o       $ b c z z z l l l p 3 o o o X $ @ , > > > > X o o o @ + + @ @ # # > > # # # @ X + $ p D L OXh.}.OXOXOXOX",
"OXOXOXOXOXL A b 3 # $ $ $ @ @ @ @ @ @ $ $ $ # < , 3 5 5 5 5 4 4 g q l l x x x c b n Z S S A A A S Z Z Z S D L OXOXOXh.OXOXOX}.OX",
"OXOXOXOXOXOXK D D H A A Z A A A A A A D H K J L L OXOXOX#XOX#XOX#X#X#X#XOX#X#X#X#XOX#XOXOXOXOXOX#XOXOX#X#XOXOXOXOXOXOXOXh.OXh.h.",
"}.OXOXOXOXOXOXOXh.h.#X#Xh.#XOX#X#XOX#XOX#XOXOX.XOXOXOXOXOXh./ }.OX/ L L / / L / / OX}./ / OXOXOXL / / / OXL OXOXh.OXOXOXOXOXOXOX",
"h.OXOXOXh.OXOXL / }.L OXL / }.h./ }.h.L / }./ .XOXOXOXOXOXOXOXOXOXOXOXOXOXOXOXOXOX/ OXOXOXOXOXOXOXOXOXOXOXOXOXOXOXOXOXOXOXOXOX/ ",
"OXOXOXOXh.}.OXOXOXOXOXh.OXOXOXOXOXh.OXOXOXOXOXOXOXOX.XOXOXOXOX/ OXh.OXOXOXOXOXOXOXOXOXOXOX.XOXOXOXOXOXOXOXOXOXOXOXOXOXOXOXOXOXOX",
"OXOXOX/ OXOXOXOXOXOXOXOXOXOXOXOXOXOXOXOXOXOXOXOX}.OXOXOXOXOXOXOXOXOXOXOX/ .XOXOXOXOXOXOXOXOX/ OX}.OXOXOX/ }.OXOXOXOXOXOXOXOXOXOX",
"OXOXOXOXOXOXh.OXOXOXOXOXOXOXOXOXOX}.OXOXOXOXOXOXh.OXOXOXOXOXh.}.OXOX}.OXOXOXh.OXOXOXOXh.}.OXOXOX/ OXOXOXOXOXOXOXOX/ OX}.}.OXOXOX",
"}.OXOXOXOXOXOXOXOXh.OXOXOXOX/ .XOX/ .XOXOXOXOXOXh.OXh.OXOXOXOXOXOX/ .XOXOXOXOXOX}.OXOXOXOXOXOXOXOXOXOXOXOXOXOXOXOXOX/ }.OXOXOX/ ",
"OXOXOXOX/ OXOXOXOXOXOXOXOXOX.XOXOXOXOXOX}.OXOX.XOXOXh.}.OXOXOXOXOXOXOXOX}.OXOXOXOXOXOXOXOXh.OXOXOXOXOXOXOXOXOXOXOXOXOXOXOXOXOXOX",
"OXOXh.OX}.OXOXOXOXOXOXOX}.OXOXOXOXOXOXOXOXOXOX/ OXOXOXOXOXOX.XOXOXOXOXOXOXOXOXOXOXOXOXh.OX}.OXOXOXOXOXOX}.OXOXOXOXOXOXOXOXOXOXOX",
"OXOXOXOXOXOXOXOXOXOXOXOXh.OXOXOXOXOXOXh.OXOXOXOXOXh.OXOXOX/ OXOXOXOXOX}..X/ OXOXOXOXOXOXOXOXOX.XOXOXOXOX/ OXOXOXOXOXOXOXOXOXOXOX",
"}.OX.X/ h.OXOXOX}.h.OXOXOXOXOXOXOXOXOXOXOXOXOXOXOXOX}.OX/ OXOXOXh.OXOXOXOXOXOXOXOXOXOX}.h.OXOXOXOXOXOX}.OXh.OXOXOXOXOX/ OXOXOXOX",
"OXOXOXOXOXOXOXOXOXh.}.OXOXOXOXOXOXOXOXOXh.OXOXOXOXOXh.OXOXOXOXh.OXOXOX.XOX}.OXOXOXOXOXOXOXOXOXOXOXOXOX/ OXOXOXOXOXOXOXh.OXOXOXOX",
"OXOXOXOXOXOX}.OXOXOXOXOXOXOXh.OXOXOXOXOXOX}.h.OXOXOXOXOXOXOX}.h.OXOXOX/ OXOXh.OXOX.XOXOXOXOXOXOXOXOXOXOXOXOXOXOXOXOXOX}.OXOXOXOX",
"OXOXOXOXOXOXOXOXOXOX/ OXOXOXOXOX}./ OXOXOXOXh.OXOXOXOXOX.XOXOXOXOXOXOXOXOXOXOXOXOXOX/ OXOXOXOX/ OXOXOXOXOXOXOX}.OXOXOXOXh.}.OXOX",
"OXOXOXOXOX/ OXOXOXOXOXOXOXL OXOXOXOXOXOXOXOXOXOXOXOXOXOXh.OXOXOX/ OXOXOXOX/ .XOXOXOXOXOXOXOXOXOXOXOX/ OXOXOXOXOXOXh.OXOXOXOXOXOX",
"OXh.OXOXOXOXOXOXOXOXOXL OXOXOXOXh.OXOXOXOXOXOXOX/ OX}.OXOXOXOXOXOXOXOXOXOXOXOXOXOXh.OXOX/ OXOXOXOXOXOX.X/ OXOXOXOXOXOXOXOXOXOXOX",
".X/ OXOXh.h.OXOXOXOXOXOXOXOXOXOXOXOXOXOX/ .XOXOXOXOXOXOXOXOXOXOX}.OXOXOXOXOXOXOX}.OXOXOXOXOXOXOX}.OXOXOXOXOXOXOXOXOXOXOXOX}.OXOX",
"OXOXOXOX}.OXOXOXOXOXOXOXOXOXOXOXOXOXOX}.OXOXh.OXOXOXOXOXOXOXOXOXOXOXOXOXh.OX}.OXOXOXOXOX.XOXOXh.OXOXOXOXh.h.}.OXOXOXOXOXOXOXOX/ "
};
