/* XPM */
static char *result[] = {
/* columns rows colors chars-per-pixel */
"64 64 256 2 ",
"   c black",
".  c #010101",
"X  c #020202",
"o  c gray1",
"O  c #040404",
"+  c gray2",
"@  c #060606",
"#  c #070707",
"$  c gray3",
"%  c #090909",
"&  c gray4",
"*  c #0B0B0B",
"=  c #0C0C0C",
"-  c gray5",
";  c #0E0E0E",
":  c gray6",
">  c #101010",
",  c #111111",
"<  c gray7",
"1  c #131313",
"2  c gray8",
"3  c #151515",
"4  c #161616",
"5  c gray9",
"6  c #181818",
"7  c #191919",
"8  c gray10",
"9  c #1B1B1B",
"0  c gray11",
"q  c #1D1D1D",
"w  c #1E1E1E",
"e  c gray12",
"r  c #202020",
"t  c gray13",
"y  c #222222",
"u  c #232323",
"i  c gray14",
"p  c #252525",
"a  c gray15",
"s  c #272727",
"d  c #282828",
"f  c gray16",
"g  c #2A2A2A",
"h  c gray17",
"j  c #2C2C2C",
"k  c #2D2D2D",
"l  c gray18",
"z  c #2F2F2F",
"x  c gray19",
"c  c #313131",
"v  c #323232",
"b  c gray20",
"n  c #343434",
"m  c #353535",
"M  c gray21",
"N  c #373737",
"B  c gray22",
"V  c #393939",
"C  c #3A3A3A",
"Z  c gray23",
"A  c #3C3C3C",
"S  c gray24",
"D  c #3E3E3E",
"F  c #3F3F3F",
"G  c gray25",
"H  c #414141",
"J  c gray26",
"K  c #434343",
"L  c #444444",
"P  c gray27",
"I  c #464646",
"U  c gray28",
"Y  c #484848",
"T  c #494949",
"R  c gray29",
"E  c #4B4B4B",
"W  c #4C4C4C",
"Q  c gray30",
"!  c #4E4E4E",
"~  c gray31",
"^  c #505050",
"/  c #515151",
"(  c gray32",
")  c #535353",
"_  c gray33",
"`  c #555555",
"'  c #565656",
"]  c gray34",
"[  c #585858",
"{  c gray35",
"}  c #5A5A5A",
"|  c #5B5B5B",
" . c gray36",
".. c #5D5D5D",
"X. c gray37",
"o. c #5F5F5F",
"O. c #606060",
"+. c gray38",
"@. c #626262",
"#. c gray39",
"$. c #646464",
"%. c #656565",
"&. c gray40",
"*. c #676767",
"=. c #686868",
"-. c DimGray",
";. c #6A6A6A",
":. c gray42",
">. c #6C6C6C",
",. c #6D6D6D",
"<. c gray43",
"1. c #6F6F6F",
"2. c gray44",
"3. c #717171",
"4. c #727272",
"5. c gray45",
"6. c #747474",
"7. c gray46",
"8. c #767676",
"9. c #777777",
"0. c gray47",
"q. c #797979",
"w. c gray48",
"e. c #7B7B7B",
"r. c #7C7C7C",
"t. c gray49",
"y. c #7E7E7E",
"u. c gray50",
"i. c #808080",
"p. c #818181",
"a. c gray51",
"s. c #838383",
"d. c #848484",
"f. c gray52",
"g. c #868686",
"h. c gray53",
"j. c #888888",
"k. c #898989",
"l. c gray54",
"z. c #8B8B8B",
"x. c gray55",
"c. c #8D8D8D",
"v. c #8E8E8E",
"b. c gray56",
"n. c #909090",
"m. c gray57",
"M. c #929292",
"N. c #939393",
"B. c gray58",
"V. c #959595",
"C. c gray59",
"Z. c #979797",
"A. c #989898",
"S. c gray60",
"D. c #9A9A9A",
"F. c #9B9B9B",
"G. c gray61",
"H. c #9D9D9D",
"J. c gray62",
"K. c #9F9F9F",
"L. c #A0A0A0",
"P. c gray63",
"I. c #A2A2A2",
"U. c gray64",
"Y. c #A4A4A4",
"T. c #A5A5A5",
"R. c gray65",
"E. c #A7A7A7",
"W. c gray66",
"Q. c #A9A9A9",
"!. c #AAAAAA",
"~. c gray67",
"^. c #ACACAC",
"/. c gray68",
"(. c #AEAEAE",
"). c #AFAFAF",
"_. c gray69",
"`. c #B1B1B1",
"'. c #B2B2B2",
"]. c gray70",
"[. c #B4B4B4",
"{. c gray71",
"}. c #B6B6B6",
"|. c #B7B7B7",
" X c gray72",
".X c #B9B9B9",
"XX c gray73",
"oX c #BBBBBB",
"OX c #BCBCBC",
"+X c gray74",
"@X c gray",
"#X c gray75",
"$X c #C0C0C0",
"%X c #C1C1C1",
"&X c gray76",
"*X c #C3C3C3",
"=X c gray77",
"-X c #C5C5C5",
";X c #C6C6C6",
":X c gray78",
">X c #C8C8C8",
",X c gray79",
"<X c #CACACA",
"1X c #CBCBCB",
"2X c gray80",
"3X c #CDCDCD",
"4X c #CECECE",
"5X c gray81",
"6X c #D0D0D0",
"7X c gray82",
"8X c #D2D2D2",
"9X c LightGray",
"0X c gray83",
"qX c #D5D5D5",
"wX c gray84",
"eX c #D7D7D7",
"rX c #D8D8D8",
"tX c gray85",
"yX c #DADADA",
"uX c gray86",
"iX c gainsboro",
"pX c #DDDDDD",
"aX c gray87",
"sX c #DFDFDF",
"dX c gray88",
"fX c #E1E1E1",
"gX c #E2E2E2",
"hX c gray89",
"jX c #E4E4E4",
"kX c gray90",
"lX c #E6E6E6",
"zX c #E7E7E7",
"xX c gray91",
"cX c #E9E9E9",
"vX c #EAEAEA",
"bX c gray92",
"nX c #ECECEC",
"mX c gray93",
"MX c #EEEEEE",
"NX c #EFEFEF",
"BX c gray94",
"VX c #F1F1F1",
"CX c gray95",
"ZX c #F3F3F3",
"AX c #F4F4F4",
"SX c gray96",
"DX c #F6F6F6",
"FX c gray97",
"GX c #F8F8F8",
"HX c #F9F9F9",
"JX c gray98",
"KX c #FBFBFB",
"LX c gray99",
"PX c #FDFDFD",
"IX c #FEFEFE",
"UX c white",
/* pixels */
"j f p i a i l k p i p i t d z p u u a i i x d a i u u p m h s s p a u j b f d p i p a c d p p i i t l g i u i a y f z a p i u u ",
"r e t t t w f u r t t t e p d t i i y t e p e e r r t e g i y u i u r p a w e r t r y g e t t t t e g u y i u y r y i e r r r t ",
"9 7 6 4 6 6 a q 8 6 5 9 7 e p q 8 5 6 9 w s r q 7 q e w d w q 8 7 0 7 t y 7 6 4 5 5 0 i 8 8 5 6 9 6 i t 9 6 6 7 q u p e 9 8 w e ",
"h j z S B n m m v l n m x x v z f z G M m v x l b N z x n l c j c l f l z h k m S M n m b c z N b z x v k s V A m n c z z M n k ",
"u y a l u y t y r r l p i i i p u g h t y u u y s s r t y i i y h y y y u u t k f y t y y e a k u u i i p y z p y y u u y f y t ",
"q 8 8 y 5 8 5 2 3 1 y w w 9 7 5 3 y y 0 q 0 0 6 9 t 8 8 5 5 6 3 u w r w 9 q 5 r 0 5 7 4 3 2 7 y 0 q 8 6 5 6 s q q q 0 9 5 t q 8 ",
"c b B V c g f g u h b f a p j f j j k k s s p r d g s s j l l z n z j h b v n C M l d j a i c z s i d h g j k k h a d y y h d d ",
"j g g f g d n b z z g f d j v d s u u i a m k g d a a a M k f f s d p z m f j g g f h N x z k f g s v k s p y i y j m g g s a a ",
"t t r e r 0 s y e r r t q e r 7 0 0 9 9 8 a e e r t y w p r e r r r q i s e r r w e e d w e r r r 9 y 0 9 0 0 0 7 e i w e r t t ",
"i e r u y u a i r 0 0 0 9 a g u t y s a i l p t e w q q h s p e 9 w 9 u d t e y y u u s y w 0 0 9 q h a y t i d u d j y r q w 0 ",
"h d k C x k d f d d m v k j j f s v v l l j g k v C z z l k z j m c k h h g s N M k h d d a k M z j j g s g M l z k g j l B m l ",
"y t u f r t y u i u f y t t t t e d i e t y u t i d e t y y t t j t t y y y r d i r t u u u p s t t t r r r g r r t y u r d u r ",
"5 4 8 y 9 8 5 4 5 4 u 9 7 5 5 6 4 r i e w q 0 5 0 i 9 8 5 6 8 6 p q 0 5 3 6 4 r e 8 7 4 4 4 0 t 7 6 5 5 6 5 p r r q q 9 3 i e 8 ",
"b j v v d f l b v b c h i d n x l C Z n k b M x l b v z v v z v z f s g V x j n l d g c v b b l s i l n k c S N v l m n k c b c ",
"i y u p a i x h a p p s i k c u p p i i a l a a i i p i x h p p p p u h l y u i p p s c s a i i s i n f i p p i u g j p p u p p ",
"7 7 7 7 9 4 u t q q q 0 6 e y 4 8 9 9 9 8 i w q e e e 8 t q w q q w 8 r r 5 7 7 8 7 7 p q q q 0 0 5 a 8 7 8 9 9 7 w u q w e e w ",
"g h p a p u h s i t p x s j f u p 0 e y u j p a t u p d b l g f s k k x k f f p s u a j p i e j k s z i a t 0 t t f g i u t i a ",
"j j l b d d s d f f C N c l j j g c N z j f g f k B l l j l j d N v x j g k h v l s d d f d l S b c k j k g N b l g f g s n m k ",
"t r r u e r t t t e g t r t r r w i t q e e w q y a e r t r r q s t r y t t e u t r r t t r u d e r t t r e a w w e w w q a y r ",
"q 0 q p t t r t r e g t w 0 e r 0 s y 0 8 0 t q e a t q 8 9 0 9 s r r w 0 q 8 y u r t r t e i d w q 0 t w e d q 0 8 r t 9 i i r ",
"N n v x d d b M b m x x l x A m v m v z z Z B m b c n x m b c z g d d x Z M v v j f g N b m b z x j N V n v M z l b S m m v b b ",
"i i i i p y h s u i u i t f k t u y u u p k y u i u u y j i y y u p y g j u i i p p i k u i u u a t z p y u u i t g d y i i u u ",
"r q 8 6 7 3 r r 9 8 8 9 5 w p 0 0 0 9 8 8 p q 0 7 7 9 3 t w 9 q 9 8 5 e p q 9 8 5 5 4 i q 9 8 8 0 4 a r 0 0 9 9 6 r y 0 8 6 8 7 ",
"s s d z z k c z k f f l d j x f u d b l c c s p d j d g b j d d g s y l k p s h c k l b k j s j k d z j d u j m c n l p a g h s ",
"p s l C z j d h g d m k f d g g s x B g d s d s l x s d f f g d b d p a a s s n N k g g g a k n g f d f f s B c f d s d d v h s ",
"t w r i 9 q q 0 q 8 s t t t r e 9 i i w t y y e r y 0 q q q 0 8 i e t t r r 9 i w 9 q 0 0 8 t s r t t r e 0 f w r t y y w i w q ",
"i p a k y w 8 5 1 6 s t w 8 9 8 0 a s u e 8 7 3 w u w q 9 w e e h p i r y i y j d w 9 7 2 1 r p w 0 8 8 9 e g i y 0 8 5 4 u r w ",
"M N V N n x B C n B m l k x C c c g g k h M c j l h h h C M b b v z h b S n N N M v c Z M m B v x j M M c l f j h z N k k k g h ",
"y t t t y e g p u y y i y i i 0 0 w w q e h u u u i i t h y t y y u r d g r t t t t y h y u y u i t a r 0 q w w 0 i f y u u i u ",
"t e 0 9 0 0 p t q 0 9 8 6 e u 0 0 9 q 0 8 s e 9 8 8 9 6 i t w 9 7 8 5 r a w q q 9 q w a w w 0 8 7 5 i e q 0 9 q 7 e a q 9 8 8 8 ",
"j d h M c l h f a u j h f z x g s z n v v v k k l v g j b x x j j l f h k f s c n l j g d i s k g g c l f f b b v v x k k x x f ",
"p p d x p i u i p p c g p u y y t k d y u y i p h c s s i i a p c d p i p a i k h i i i i i g x s i y y y i z u u u u p i c j s ",
"8 8 0 i q w 0 q 0 8 u q q q 0 0 7 t y w r r w 9 w y 7 0 q 0 0 8 a q w 0 8 9 7 y t q q 0 0 8 q y 0 q q 9 0 8 p w e r e w 7 y q 8 ",
"a r a h r r e y u p h y 0 9 y u r l v j a s g u s z d i t u p a h i t w a i r h p r e e y u d f w 9 w i t i b l g i f f t k h s ",
"x h k l g g M M v z g g s x C l k b c k j m c l g h k j N n j z g d s z C j j l j g k V b c j g g s B m k z b z j z m x j g h k ",
"0 0 w e r q d y w r y y e p s 8 q w e r e s r t y y y e a y t r y y e i u 8 0 w r e e d w e t t u w j e 0 q e r w u p r t u y t ",
"0 q 8 6 8 5 i t q 8 7 e 6 t t 6 9 4 3 5 6 p w q 8 7 0 0 a t r e 8 w 9 i i 9 q 6 8 7 8 a w q 6 0 w 6 a 8 8 7 2 5 4 w u 0 0 7 9 q ",
"v b c M l k z j h g V F N m c z z k m c z z j k j N x n N N v l B V N m v b v n n j l l h h k G Z M n z c h c n x x l k h c n c ",
"u y i s e r t u u y x a u u i i y h h u u y u t s k i i u u i t k i u y u u t d u e r t u y d z u i i i i u z a u y y u t k d i ",
"0 9 9 y r t e w w 9 s e q q 9 0 7 t w 7 9 9 8 7 q u q 0 9 9 8 6 s r r w q 0 8 e y u u w w 0 r a 0 q q 9 9 8 u 8 8 7 7 8 5 t e 0 ",
"l j j l a a h z l z c j f s v x j m z d a x n x z x c g d h j h k p a a l l g z g s d z l z x x h d j b l l M g d d n c l z x z ",
"z k g f s p c l g h s f s l n f f d f d h M g g g d g f n h s s i a i l M k h g d a d n h j f d g a m k f d f g d c v f h f f g ",
"r r e e r 0 i u e e r r 0 u d e t t t w q s r r e e r 9 p r r t t t q u a e e e e e w a t r r r r 9 g y r t r e 9 u i r r e r w ",
"t w 0 q q 9 a i r 0 0 r 8 u d w 9 q t t i f w 0 8 w q 9 d t q w q 0 6 i s e q q w 0 w d t e 9 w e 8 d u q 9 e p u d a 0 9 9 w q ",
"d g m F N n v n v c B v l x c k f V S v v z j h M n k c v z z z M g f l g g k A S m n m v z n B c z x l k j F B b c l h z B x k ",
"u r f d e r t t e y j y u u u i r h p t y u i y s y r r t y r y d t y y u u t j y r r r r 0 f d t u u i y u j r t y u u y d e r ",
"q 6 e e 5 7 3 < < 4 y 0 0 7 4 4 4 a e q 0 8 7 3 w w 8 6 5 5 4 7 i w e 9 9 0 6 u 7 6 5 1 1 , q e 0 9 6 4 3 0 a 0 q 9 7 6 4 y 8 8 ",
"m N A C v j x l f n b g d h c k z k l k f j a p k g f h b c c b m z h c N m V A M z j v g j M l g s x l z l k z h g h i d j f g ",
"d s a a s s b k j f s d a k h i y t t r s b f d a p i s n a s a p a u v k a s a s a j v j h d s d s x a i t t y r z l d s p p p ",
"r e e q w q s w e e e e 8 t q 8 9 9 9 7 0 p q w e e r q p w e w w w 8 s u e e w q q t p q e e e w 9 y 8 9 9 9 9 5 y t q w e e e ",
"i r i s a a d i e q e e e j g i y a j d g z p u t y w u l d s r e y w d s y t s p a a s y w w e w u l s u u g h s l h i y t t e ",
"f s c M j g s s a g M z h f d a a n j j h d g j M M k l g h j k m l h f f d d N x h d s s p c n k g f s p j b g j g d h k C c l ",
"t e p p e t y y t y a e r r r r e f t r t y y w p u w r t t w u d w r t r t e d t r t y y r p u e r r r e y d w r y y t e s e e ",
"7 4 e t 8 7 4 4 5 9 u 7 6 5 6 7 5 a u t q w w 5 u u 0 7 5 7 8 q a 0 9 4 5 6 5 i 0 9 6 3 5 4 t e 6 5 5 6 6 0 d t r q w 9 6 d w 0 ",
"v l n x g h n m m b z g a z N x c S B v z N M x x v v z N v c b k f s v Z l z n j g l M m m c k d s m m l N S M z v N n l v v c ",
"t r y i i u z i u u u a y x d t y y y y a g u i u u u i l p u i i p y k a e t y i y f j u u u i p p v y y y y y y g a i i u u i ",
"6 6 5 6 7 4 i q q 9 8 0 3 i 0 5 7 7 7 6 9 u q q q q q 8 t 0 w 0 9 0 6 u 0 5 6 5 7 4 0 u 0 0 9 9 8 6 a 4 7 7 7 8 5 t r 0 q q q 0 ",
"k l f h s d k s s u x b j c f f a r a a g j s s i f f z N x l g l x z n l l h g g a h h a a p m z l z a g t u s a k f d p s d h ",
"g d l k i p p a s g C z k g g g d n v h d s d a x n h h f h d f m h j s d g d c d p p a s a v N k j g g f h N l g s s d s M l h ",
"r w r y e t t t e r f w r r w e q i q q w q q 9 u y w r r e q q s r r y r r w u r r t t t w a i w r e w w e u 0 q w q q q a e e ",
"r q u a t y y u u p h t e w i y t j t w 9 y p e i s i q 9 e w t s r t q e e q s u y t u u y f s r w r i r a f w q q p y e d a t ",
"N b c j d f N v n v l z j m V v c b x l c A n m c c v x N c x j d d d n Z m c c f d l B c m x l z j Z m v c b l l N V b n x v c ",
"y y y u u t g y y y y u w j a r y t y r a d r y y y t y g r t y u i r h p t y y u y p d t y y y t t l r y t t y r h y t y y t t ",
"t q 9 9 8 5 i t w 9 q q 5 i u q q w e 8 w p e 0 8 0 9 5 i q q w 0 8 4 i i e 9 9 9 6 9 p e 0 9 q 9 7 f e q q w w 7 i y w 9 8 0 7 "
};
